<svg width="21" height="21" viewBox="0 0 21 21" fill="none" xmlns="http://www.w3.org/2000/svg">
<path d="M9.28317 12.6091L7.50817 10.8341L6.62484 11.7174L9.27484 14.3674L14.2748 9.36745L13.3915 8.48411L9.28317 12.6091ZM10.4998 17.1674C8.95274 17.1674 7.46901 16.5529 6.37505 15.4589C5.28109 14.3649 4.6665 12.8812 4.6665 11.3341C4.6665 9.78702 5.28109 8.30329 6.37505 7.20933C7.46901 6.11536 8.95274 5.50078 10.4998 5.50078C12.0469 5.50078 13.5307 6.11536 14.6246 7.20933C15.7186 8.30329 16.3332 9.78702 16.3332 11.3341C16.3332 12.8812 15.7186 14.3649 14.6246 15.4589C13.5307 16.5529 12.0469 17.1674 10.4998 17.1674ZM10.4998 3.83411C8.51071 3.83411 6.60306 4.62429 5.19654 6.03081C3.79001 7.43734 2.99984 9.34499 2.99984 11.3341C2.99984 13.3232 3.79001 15.2309 5.19654 16.6374C6.60306 18.0439 8.51071 18.8341 10.4998 18.8341C12.489 18.8341 14.3966 18.0439 15.8031 16.6374C17.2097 15.2309 17.9998 13.3232 17.9998 11.3341C17.9998 9.34499 17.2097 7.43734 15.8031 6.03081C14.3966 4.62429 12.489 3.83411 10.4998 3.83411ZM7.0665 3.32578L5.99984 2.05078L2.1665 5.25911L3.2415 6.53411L7.0665 3.32578ZM18.8332 5.26745L14.9998 2.05078L13.9248 3.32578L17.7582 6.54245L18.8332 5.26745Z" fill="#F7941D"/>
</svg>
