<svg width="18" height="18" viewBox="0 0 18 18" fill="none" xmlns="http://www.w3.org/2000/svg">
<path d="M13.1418 11.0868C12.9605 11.2586 12.8772 11.5069 12.9185 11.7505L13.5407 15.1166C13.5932 15.4019 13.47 15.6906 13.2257 15.8555C12.9864 16.0265 12.6679 16.047 12.4069 15.9102L9.30696 14.3298C9.19917 14.2737 9.07949 14.2436 8.957 14.2401H8.76733C8.70154 14.2497 8.63715 14.2702 8.57835 14.3017L5.47776 15.8897C5.32448 15.9649 5.1509 15.9916 4.98082 15.9649C4.56648 15.8883 4.29001 15.5024 4.3579 15.0953L4.98082 11.7293C5.02212 11.4836 4.93883 11.2339 4.75755 11.0595L2.23018 8.66488C2.01881 8.46442 1.94532 8.16339 2.04191 7.89178C2.1357 7.62085 2.37506 7.42313 2.66413 7.37865L6.14267 6.88537C6.40724 6.85869 6.63961 6.70133 6.75859 6.46872L8.29139 3.39682C8.32779 3.3284 8.37468 3.26546 8.43137 3.21209L8.49436 3.1642C8.52726 3.12862 8.56506 3.0992 8.60705 3.07526L8.68334 3.04789L8.80232 3H9.09699C9.36015 3.02668 9.59182 3.18062 9.7129 3.4105L11.266 6.46872C11.378 6.69244 11.5957 6.84774 11.8469 6.88537L15.3255 7.37865C15.6194 7.4197 15.8651 7.61811 15.9624 7.89178C16.0541 8.16613 15.975 8.46716 15.7594 8.66488L13.1418 11.0868Z" fill="white"/>
<path fill-rule="evenodd" clip-rule="evenodd" d="M8.81244 3.375C8.74419 3.375 8.57619 3.39375 8.48694 3.57225L7.11744 6.3105C6.90069 6.74325 6.48294 7.044 5.99994 7.113L2.93394 7.55475C2.73144 7.584 2.66244 7.734 2.64144 7.797C2.62269 7.85775 2.59269 8.01225 2.73219 8.14575L4.94919 10.2758C5.30244 10.6155 5.46294 11.1053 5.37894 11.5845L4.85694 14.592C4.82469 14.7802 4.94244 14.8897 4.99494 14.9272C5.05044 14.9692 5.19894 15.0525 5.38269 14.9565L8.12394 13.5353C8.55594 13.3125 9.07044 13.3125 9.50094 13.5353L12.2414 14.9557C12.4259 15.051 12.5744 14.9677 12.6307 14.9272C12.6832 14.8897 12.8009 14.7802 12.7687 14.592L12.2452 11.5845C12.1612 11.1053 12.3217 10.6155 12.6749 10.2758L14.8919 8.14575C15.0322 8.01225 15.0022 7.857 14.9827 7.797C14.9624 7.734 14.8934 7.584 14.6909 7.55475L11.6249 7.113C11.1427 7.044 10.7249 6.74325 10.5082 6.30975L9.13719 3.57225C9.04869 3.39375 8.88069 3.375 8.81244 3.375ZM5.21019 16.125C4.90044 16.125 4.59294 16.0275 4.32969 15.8355C3.87519 15.5025 3.65244 14.9527 3.74919 14.3993L4.27119 11.3918C4.29069 11.28 4.25244 11.1667 4.16994 11.0872L1.95294 8.95725C1.54494 8.5665 1.39869 7.989 1.57119 7.45275C1.74519 6.9105 2.20569 6.52275 2.77344 6.44175L5.83944 6C5.95794 5.9835 6.05994 5.91075 6.11094 5.80725L7.48119 3.06825C7.73394 2.5635 8.24394 2.25 8.81244 2.25C9.38094 2.25 9.89094 2.5635 10.1437 3.06825L11.5147 5.8065C11.5664 5.91075 11.6677 5.9835 11.7854 6L14.8514 6.44175C15.4192 6.52275 15.8797 6.9105 16.0537 7.45275C16.2262 7.989 16.0792 8.5665 15.6712 8.95725L13.4542 11.0872C13.3717 11.1667 13.3342 11.28 13.3537 11.391L13.8764 14.3993C13.9724 14.9535 13.7497 15.5033 13.2944 15.8355C12.8332 16.1737 12.2324 16.2195 11.7232 15.954L8.98344 14.5343C8.87619 14.4788 8.74794 14.4788 8.64069 14.5343L5.90094 15.9548C5.68194 16.0688 5.44569 16.125 5.21019 16.125Z" fill="#FFC501"/>
</svg>
