<svg width="15" height="14" viewBox="0 0 15 14" fill="none" xmlns="http://www.w3.org/2000/svg">
<path d="M7.42155 11.2754C4.95959 11.2754 2.9554 9.27121 2.9554 6.80925C2.9554 4.34728 4.95959 2.3431 7.42155 2.3431C9.88351 2.3431 11.8877 4.34728 11.8877 6.80925C11.8877 9.27121 9.88351 11.2754 7.42155 11.2754ZM7.42155 1.22656C4.33433 1.22656 1.83887 3.72202 1.83887 6.80925C1.83887 9.89647 4.33433 12.3919 7.42155 12.3919C10.5088 12.3919 13.0042 9.89647 13.0042 6.80925C13.0042 3.72202 10.5088 1.22656 7.42155 1.22656ZM8.86746 4.57617L7.42155 6.02209L5.97564 4.57617L5.18848 5.36333L6.63439 6.80925L5.18848 8.25516L5.97564 9.04232L7.42155 7.5964L8.86746 9.04232L9.65462 8.25516L8.20871 6.80925L9.65462 5.36333L8.86746 4.57617Z" fill="white"/>
</svg>
