<svg width="24" height="24" viewBox="0 0 24 24" fill="none" xmlns="http://www.w3.org/2000/svg">
<path d="M18.6665 20H3.99984V5.33333H12.8132L14.1465 4H3.99984C3.64622 4 3.30708 4.14048 3.05703 4.39052C2.80698 4.64057 2.6665 4.97971 2.6665 5.33333V20C2.6665 20.3536 2.80698 20.6928 3.05703 20.9428C3.30708 21.1929 3.64622 21.3333 3.99984 21.3333H18.6665C19.0201 21.3333 19.3593 21.1929 19.6093 20.9428C19.8594 20.6928 19.9998 20.3536 19.9998 20V10L18.6665 11.3333V20Z" fill="#09273C"/>
<path d="M22.3531 3.89411L20.1065 1.64744C20.0068 1.54746 19.8883 1.46814 19.7579 1.41402C19.6275 1.35989 19.4877 1.33203 19.3465 1.33203C19.2053 1.33203 19.0655 1.35989 18.935 1.41402C18.8046 1.46814 18.6862 1.54746 18.5865 1.64744L9.44648 10.8408L8.70648 14.0474C8.67495 14.2029 8.67826 14.3634 8.71618 14.5174C8.7541 14.6714 8.82567 14.8151 8.92576 14.9381C9.02585 15.0611 9.15196 15.1605 9.29502 15.2289C9.43808 15.2974 9.59454 15.3333 9.75314 15.3341C9.83512 15.3431 9.91783 15.3431 9.99981 15.3341L13.2331 14.6208L22.3531 5.41411C22.4531 5.3144 22.5324 5.19595 22.5866 5.06554C22.6407 4.93512 22.6686 4.79531 22.6686 4.65411C22.6686 4.51291 22.6407 4.3731 22.5866 4.24268C22.5324 4.11227 22.4531 3.99382 22.3531 3.89411ZM12.5398 13.3874L10.0998 13.9274L10.6665 11.5074L17.5465 4.58078L19.4265 6.46078L12.5398 13.3874ZM20.1798 5.70744L18.2998 3.82744L19.3331 2.77411L21.2265 4.66744L20.1798 5.70744Z" fill="#09273C"/>
</svg>
