<svg width="60" height="80" viewBox="0 0 60 80" fill="none" xmlns="http://www.w3.org/2000/svg">
<path d="M60 77.4104C59.9991 77.8791 59.8489 78.3389 59.5654 78.7407C59.2818 79.1426 58.8755 79.4716 58.3897 79.6926C57.9039 79.9136 57.3568 80.0184 56.8065 79.9959C56.2562 79.9734 55.7234 79.8244 55.2648 79.5648L34.2698 67.6575C33.0045 66.9396 31.5177 66.5565 29.9969 66.5565C28.4761 66.5565 26.9893 66.9396 25.724 67.6575L4.729 79.5648C4.27089 79.8249 3.73835 79.9743 3.18823 79.997C2.63811 80.0197 2.09108 79.9148 1.60554 79.6936C1.11999 79.4724 0.714174 79.1432 0.431401 78.741C0.148628 78.3389 -0.000478591 77.879 1.15402e-06 77.4104V0H60V77.4104Z" fill="url(#paint0_linear_2140:9041)"/>
<defs>
<linearGradient id="paint0_linear_2140:9041" x1="30" y1="86.5878" x2="30" y2="-0.0411736" gradientUnits="userSpaceOnUse">
<stop stop-color="#19425E"/>
<stop offset="1" stop-color="#3B9ADA"/>
</linearGradient>
</defs>
</svg>
