<svg width="40" height="40" viewBox="0 0 40 40" fill="none" xmlns="http://www.w3.org/2000/svg">
<path d="M20 6.66602C22.6522 6.66602 25.1957 7.71958 27.0711 9.59495C28.9464 11.4703 30 14.0139 30 16.666C30 21.616 26.4 25.7327 21.6667 26.5327V29.9993H25V33.3327H21.6667V36.666H18.3333V33.3327H15V29.9993H18.3333V26.5327C13.6 25.7327 10 21.616 10 16.666C10 14.0139 11.0536 11.4703 12.9289 9.59495C14.8043 7.71958 17.3478 6.66602 20 6.66602ZM20 9.99935C18.2319 9.99935 16.5362 10.7017 15.286 11.952C14.0357 13.2022 13.3333 14.8979 13.3333 16.666C13.3333 18.4341 14.0357 20.1298 15.286 21.3801C16.5362 22.6303 18.2319 23.3327 20 23.3327C21.7681 23.3327 23.4638 22.6303 24.714 21.3801C25.9643 20.1298 26.6667 18.4341 26.6667 16.666C26.6667 14.8979 25.9643 13.2022 24.714 11.952C23.4638 10.7017 21.7681 9.99935 20 9.99935Z" fill="#3B9ADA"/>
</svg>
