<svg width="40" height="40" viewBox="0 0 40 40" fill="none" xmlns="http://www.w3.org/2000/svg">
<path d="M29.3 6.66732H23.3333V3.33398H35V15.0007H31.6667V9.01732L25.2833 15.4007C26.15 16.7173 26.6667 18.334 26.6667 20.0007C26.6667 24.034 23.8 27.4007 20 28.1673V31.6673H23.3333V35.0007H20V38.334H16.6667V35.0007H13.3333V31.6673H16.6667V28.1673C12.8667 27.4007 10 24.034 10 20.0007C10 17.7905 10.878 15.6709 12.4408 14.1081C14.0036 12.5453 16.1232 11.6673 18.3333 11.6673C20 11.6673 21.6 12.1673 22.9167 13.0507L29.3 6.66732ZM18.3333 15.0007C17.0073 15.0007 15.7355 15.5274 14.7978 16.4651C13.8601 17.4028 13.3333 18.6746 13.3333 20.0007C13.3333 21.3267 13.8601 22.5985 14.7978 23.5362C15.7355 24.4739 17.0073 25.0007 18.3333 25.0007C19.6594 25.0007 20.9312 24.4739 21.8689 23.5362C22.8065 22.5985 23.3333 21.3267 23.3333 20.0007C23.3333 18.6746 22.8065 17.4028 21.8689 16.4651C20.9312 15.5274 19.6594 15.0007 18.3333 15.0007Z" fill="#3B9ADA"/>
</svg>
