<svg width="28" height="28" viewBox="0 0 28 28" fill="none" xmlns="http://www.w3.org/2000/svg">
<path d="M12.8335 21.0007H15.1668V18.6673H12.8335V21.0007ZM14.0002 2.33398C12.4681 2.33398 10.951 2.63575 9.53552 3.22206C8.12006 3.80836 6.83393 4.66772 5.75058 5.75107C3.56266 7.939 2.3335 10.9065 2.3335 14.0007C2.3335 17.0948 3.56266 20.0623 5.75058 22.2502C6.83393 23.3336 8.12006 24.1929 9.53552 24.7792C10.951 25.3656 12.4681 25.6673 14.0002 25.6673C17.0944 25.6673 20.0618 24.4382 22.2497 22.2502C24.4377 20.0623 25.6668 17.0948 25.6668 14.0007C25.6668 12.4686 25.3651 10.9515 24.7788 9.53601C24.1925 8.12055 23.3331 6.83442 22.2497 5.75107C21.1664 4.66772 19.8803 3.80836 18.4648 3.22206C17.0493 2.63575 15.5323 2.33398 14.0002 2.33398ZM14.0002 23.334C8.85516 23.334 4.66683 19.1457 4.66683 14.0007C4.66683 8.85565 8.85516 4.66732 14.0002 4.66732C19.1452 4.66732 23.3335 8.85565 23.3335 14.0007C23.3335 19.1457 19.1452 23.334 14.0002 23.334ZM14.0002 7.00065C12.7625 7.00065 11.5755 7.49232 10.7003 8.36749C9.82516 9.24266 9.3335 10.4296 9.3335 11.6673H11.6668C11.6668 11.0485 11.9127 10.455 12.3502 10.0174C12.7878 9.57982 13.3813 9.33398 14.0002 9.33398C14.619 9.33398 15.2125 9.57982 15.6501 10.0174C16.0877 10.455 16.3335 11.0485 16.3335 11.6673C16.3335 14.0007 12.8335 13.709 12.8335 17.5007H15.1668C15.1668 14.8757 18.6668 14.584 18.6668 11.6673C18.6668 10.4296 18.1752 9.24266 17.3 8.36749C16.4248 7.49232 15.2378 7.00065 14.0002 7.00065Z" fill="#09273C"/>
</svg>
