<svg width="24" height="24" viewBox="0 0 24 24" fill="none" xmlns="http://www.w3.org/2000/svg">
<path d="M10.8335 19.0007H13.1668V16.6673H10.8335V19.0007ZM12.0002 0.333984C10.4681 0.333984 8.95099 0.635752 7.53552 1.22206C6.12006 1.80836 4.83393 2.66772 3.75058 3.75107C1.56266 5.939 0.333496 8.90646 0.333496 12.0007C0.333496 15.0948 1.56266 18.0623 3.75058 20.2502C4.83393 21.3336 6.12006 22.1929 7.53552 22.7792C8.95099 23.3656 10.4681 23.6673 12.0002 23.6673C15.0944 23.6673 18.0618 22.4382 20.2497 20.2502C22.4377 18.0623 23.6668 15.0948 23.6668 12.0007C23.6668 10.4686 23.3651 8.95148 22.7788 7.53601C22.1925 6.12055 21.3331 4.83442 20.2497 3.75107C19.1664 2.66772 17.8803 1.80836 16.4648 1.22206C15.0493 0.635752 13.5323 0.333984 12.0002 0.333984ZM12.0002 21.334C6.85516 21.334 2.66683 17.1457 2.66683 12.0007C2.66683 6.85565 6.85516 2.66732 12.0002 2.66732C17.1452 2.66732 21.3335 6.85565 21.3335 12.0007C21.3335 17.1457 17.1452 21.334 12.0002 21.334ZM12.0002 5.00065C10.7625 5.00065 9.5755 5.49232 8.70033 6.36749C7.82516 7.24266 7.3335 8.42964 7.3335 9.66732H9.66683C9.66683 9.04848 9.91266 8.45499 10.3502 8.0174C10.7878 7.57982 11.3813 7.33398 12.0002 7.33398C12.619 7.33398 13.2125 7.57982 13.6501 8.0174C14.0877 8.45499 14.3335 9.04848 14.3335 9.66732C14.3335 12.0007 10.8335 11.709 10.8335 15.5007H13.1668C13.1668 12.8757 16.6668 12.584 16.6668 9.66732C16.6668 8.42964 16.1752 7.24266 15.3 6.36749C14.4248 5.49232 13.2378 5.00065 12.0002 5.00065Z" fill="#3B9ADA"/>
</svg>
