<svg width="28" height="28" viewBox="0 0 28 28" fill="none" xmlns="http://www.w3.org/2000/svg">
<path d="M13.9998 5.66602C14.9723 5.66602 15.9049 6.05232 16.5926 6.73996C17.2802 7.42759 17.6665 8.36022 17.6665 9.33268C17.6665 10.3051 17.2802 11.2378 16.5926 11.9254C15.9049 12.613 14.9723 12.9993 13.9998 12.9993C13.0274 12.9993 12.0947 12.613 11.4071 11.9254C10.7195 11.2378 10.3332 10.3051 10.3332 9.33268C10.3332 8.36022 10.7195 7.42759 11.4071 6.73996C12.0947 6.05232 13.0274 5.66602 13.9998 5.66602ZM13.9998 17.3327C16.4567 17.3327 18.6305 17.8323 20.153 18.5936C21.7351 19.3846 22.3332 20.2928 22.3332 20.9993V22.3327H5.6665V20.9993C5.6665 20.2928 6.26454 19.3846 7.84663 18.5936C9.36917 17.8323 11.543 17.3327 13.9998 17.3327Z" stroke="#09273C" stroke-width="2"/>
</svg>
