<svg width="24" height="26" viewBox="0 0 24 26" fill="none" xmlns="http://www.w3.org/2000/svg">
<path fill-rule="evenodd" clip-rule="evenodd" d="M12.8101 1C13.6337 1 14.4343 1.34052 15.0083 1.93239C15.5811 2.52773 15.8975 3.34429 15.8733 4.17243C15.8756 4.35891 15.9366 4.57434 16.047 4.76314C16.2299 5.07586 16.5186 5.29593 16.8614 5.38627C17.2042 5.47198 17.5631 5.42566 17.8679 5.24381C19.3403 4.39713 21.2142 4.90444 22.0551 6.37542L22.7717 7.62516C22.7901 7.65875 22.8062 7.69118 22.82 7.72477C23.5815 9.17374 23.0731 10.998 21.6582 11.8308C21.4523 11.9501 21.2855 12.1168 21.1705 12.3184C20.9922 12.6299 20.9427 13.0006 21.0324 13.3411C21.1245 13.6886 21.3442 13.977 21.6536 14.1553C22.3518 14.5596 22.8729 15.2406 23.0811 16.0271C23.2893 16.8124 23.1755 17.6648 22.7694 18.3679L22.0056 19.6489C21.1647 21.1037 19.2909 21.6075 17.8334 20.7597C17.639 20.6473 17.4147 20.5859 17.1916 20.5801H17.1847C16.8522 20.5801 16.5106 20.7226 16.2621 20.9716C16.0102 21.2253 15.8722 21.5635 15.8745 21.9225C15.8664 23.624 14.4918 25 12.8101 25H11.3687C9.67893 25 8.30432 23.6171 8.30432 21.9156C8.30201 21.7059 8.2422 21.4882 8.13062 21.2994C7.95002 20.982 7.65784 20.755 7.3208 20.6647C6.98607 20.5743 6.61912 20.6241 6.31774 20.8002C5.59535 21.2056 4.74527 21.304 3.96767 21.084C3.19121 20.8627 2.52058 20.3253 2.12718 19.613L1.40824 18.3656C0.567365 16.8969 1.06775 15.0148 2.52403 14.1669C2.93699 13.9272 3.19351 13.4801 3.19351 13.0006C3.19351 12.5211 2.93699 12.0728 2.52403 11.8331C1.0666 10.9806 0.567365 9.09382 1.40709 7.62516L2.18699 6.33604C3.01636 4.8836 4.89136 4.37165 6.3534 5.21717C6.5524 5.33647 6.76866 5.3967 6.98837 5.39902C7.70501 5.39902 8.30431 4.80368 8.31582 4.07167C8.31122 3.26437 8.62755 2.4895 9.20385 1.90459C9.78246 1.32083 10.5509 1 11.3687 1H12.8101ZM12.8101 2.73737H11.3687C11.0121 2.73737 10.6785 2.87752 10.4266 3.13001C10.1759 3.38367 10.039 3.72072 10.0413 4.07977C10.0171 5.77313 8.6425 7.13638 6.97801 7.13638C6.44427 7.13059 5.93009 6.98581 5.48377 6.7171C4.85685 6.35804 4.03783 6.57927 3.67089 7.22209L2.89213 8.51122C2.53554 9.13436 2.75409 9.95787 3.38906 10.3297C4.33116 10.8787 4.91897 11.9026 4.91897 13.0006C4.91897 14.0986 4.33116 15.1213 3.38676 15.6715C2.75524 16.0398 2.53669 16.8587 2.90248 17.4957L3.62833 18.7559C3.80777 19.0814 4.1011 19.3165 4.44044 19.4126C4.77863 19.5076 5.15133 19.4671 5.46191 19.2933C5.91858 19.0235 6.45002 18.8833 6.98377 18.8833C7.24718 18.8833 7.5106 18.9169 7.76827 18.9864C8.54588 19.1972 9.22111 19.7207 9.62141 20.4238C9.88138 20.8651 10.0252 21.3805 10.0298 21.9063C10.0298 22.6592 10.6302 23.2626 11.3687 23.2626H12.8101C13.5451 23.2626 14.1456 22.6627 14.149 21.9225C14.1444 21.1048 14.4619 20.3276 15.0428 19.7427C15.6157 19.1659 16.4163 18.8196 17.2169 18.8428C17.7414 18.8555 18.2464 18.998 18.6916 19.2528C19.3323 19.6223 20.1502 19.4022 20.5206 18.7652L21.2844 17.483C21.4546 17.1876 21.5041 16.817 21.4132 16.4753C21.3235 16.1336 21.098 15.8371 20.7943 15.6622C20.0834 15.2499 19.5762 14.5851 19.3656 13.7882C19.1574 13.0064 19.2713 12.1527 19.6774 11.4497C19.9419 10.9864 20.3296 10.5961 20.7943 10.3273C21.4178 9.96019 21.6363 9.13899 21.274 8.49964C21.259 8.47416 21.2452 8.44752 21.2337 8.41972L20.5597 7.24294C20.1927 6.60012 19.376 6.37889 18.7353 6.74606C18.0428 7.15839 17.2192 7.27653 16.4278 7.06689C15.6375 6.86072 14.9749 6.35688 14.562 5.64572C14.2974 5.20095 14.1536 4.68322 14.149 4.15622C14.1594 3.7601 14.0213 3.40452 13.7706 3.14391C13.5209 2.88446 13.1701 2.73737 12.8101 2.73737ZM12.0945 9.07772C14.2421 9.07772 15.9894 10.8383 15.9894 13.0007C15.9894 15.1631 14.2421 16.9214 12.0945 16.9214C9.94684 16.9214 8.19952 15.1631 8.19952 13.0007C8.19952 10.8383 9.94684 9.07772 12.0945 9.07772ZM12.0945 10.8151C10.8981 10.8151 9.92498 11.7961 9.92498 13.0007C9.92498 14.2053 10.8981 15.184 12.0945 15.184C13.2908 15.184 14.2639 14.2053 14.2639 13.0007C14.2639 11.7961 13.2908 10.8151 12.0945 10.8151Z" fill="#09273C" stroke="#09273C" stroke-width="0.5"/>
</svg>
