<svg width="28" height="28" viewBox="0 0 28 28" fill="none" xmlns="http://www.w3.org/2000/svg">
<path d="M5.83333 3.5C4.53833 3.5 3.5 4.55 3.5 5.83333V22.1667C3.5 22.7855 3.74583 23.379 4.18342 23.8166C4.621 24.2542 5.21449 24.5 5.83333 24.5H22.1667C22.7855 24.5 23.379 24.2542 23.8166 23.8166C24.2542 23.379 24.5 22.7855 24.5 22.1667V19.5067C25.1883 19.0983 25.6667 18.3633 25.6667 17.5V10.5C25.6667 9.63667 25.1883 8.90167 24.5 8.49333V5.83333C24.5 5.21449 24.2542 4.621 23.8166 4.18342C23.379 3.74583 22.7855 3.5 22.1667 3.5H5.83333ZM5.83333 5.83333H22.1667V8.16667H15.1667C14.5478 8.16667 13.9543 8.4125 13.5168 8.85008C13.0792 9.28767 12.8333 9.88116 12.8333 10.5V17.5C12.8333 18.1188 13.0792 18.7123 13.5168 19.1499C13.9543 19.5875 14.5478 19.8333 15.1667 19.8333H22.1667V22.1667H5.83333V5.83333ZM15.1667 10.5H23.3333V17.5H15.1667V10.5ZM18.6667 12.25C18.2025 12.25 17.7574 12.4344 17.4292 12.7626C17.101 13.0908 16.9167 13.5359 16.9167 14C16.9167 14.4641 17.101 14.9092 17.4292 15.2374C17.7574 15.5656 18.2025 15.75 18.6667 15.75C19.1308 15.75 19.5759 15.5656 19.9041 15.2374C20.2323 14.9092 20.4167 14.4641 20.4167 14C20.4167 13.5359 20.2323 13.0908 19.9041 12.7626C19.5759 12.4344 19.1308 12.25 18.6667 12.25Z" fill="#09273C"/>
</svg>
