<svg width="23" height="22" viewBox="0 0 23 22" fill="none" xmlns="http://www.w3.org/2000/svg">
<path d="M2.83333 0.5C1.53833 0.5 0.5 1.55 0.5 2.83333V19.1667C0.5 19.7855 0.745833 20.379 1.18342 20.8166C1.621 21.2542 2.21449 21.5 2.83333 21.5H19.1667C19.7855 21.5 20.379 21.2542 20.8166 20.8166C21.2542 20.379 21.5 19.7855 21.5 19.1667V16.5067C22.1883 16.0983 22.6667 15.3633 22.6667 14.5V7.5C22.6667 6.63667 22.1883 5.90167 21.5 5.49333V2.83333C21.5 2.21449 21.2542 1.621 20.8166 1.18342C20.379 0.745833 19.7855 0.5 19.1667 0.5H2.83333ZM2.83333 2.83333H19.1667V5.16667H12.1667C11.5478 5.16667 10.9543 5.4125 10.5168 5.85008C10.0792 6.28767 9.83333 6.88116 9.83333 7.5V14.5C9.83333 15.1188 10.0792 15.7123 10.5168 16.1499C10.9543 16.5875 11.5478 16.8333 12.1667 16.8333H19.1667V19.1667H2.83333V2.83333ZM12.1667 7.5H20.3333V14.5H12.1667V7.5ZM15.6667 9.25C15.2025 9.25 14.7574 9.43437 14.4292 9.76256C14.101 10.0908 13.9167 10.5359 13.9167 11C13.9167 11.4641 14.101 11.9092 14.4292 12.2374C14.7574 12.5656 15.2025 12.75 15.6667 12.75C16.1308 12.75 16.5759 12.5656 16.9041 12.2374C17.2323 11.9092 17.4167 11.4641 17.4167 11C17.4167 10.5359 17.2323 10.0908 16.9041 9.76256C16.5759 9.43437 16.1308 9.25 15.6667 9.25Z" fill="#3B9ADA"/>
</svg>
