<svg width="16" height="16" viewBox="0 0 16 16" fill="none" xmlns="http://www.w3.org/2000/svg">
<path d="M7.99992 1.33203C7.12444 1.33203 6.25753 1.50447 5.4487 1.8395C4.63986 2.17453 3.90493 2.6656 3.28587 3.28465C2.03563 4.5349 1.33325 6.23059 1.33325 7.9987C1.33325 9.76681 2.03563 11.4625 3.28587 12.7127C3.90493 13.3318 4.63986 13.8229 5.4487 14.1579C6.25753 14.4929 7.12444 14.6654 7.99992 14.6654C9.76803 14.6654 11.4637 13.963 12.714 12.7127C13.9642 11.4625 14.6666 9.76681 14.6666 7.9987C14.6666 7.12322 14.4941 6.25631 14.1591 5.44747C13.8241 4.63864 13.333 3.90371 12.714 3.28465C12.0949 2.6656 11.36 2.17453 10.5511 1.8395C9.7423 1.50447 8.8754 1.33203 7.99992 1.33203ZM4.71325 12.1854C4.99992 11.5854 6.74659 10.9987 7.99992 10.9987C9.25325 10.9987 10.9999 11.5854 11.2866 12.1854C10.3799 12.9054 9.23992 13.332 7.99992 13.332C6.75992 13.332 5.61992 12.9054 4.71325 12.1854ZM12.2399 11.2187C11.2866 10.0587 8.97325 9.66537 7.99992 9.66537C7.02659 9.66537 4.71325 10.0587 3.75992 11.2187C3.07992 10.332 2.66659 9.21203 2.66659 7.9987C2.66659 5.0587 5.05992 2.66536 7.99992 2.66536C10.9399 2.66536 13.3333 5.0587 13.3333 7.9987C13.3333 9.21203 12.9199 10.332 12.2399 11.2187ZM7.99992 3.9987C6.70659 3.9987 5.66659 5.0387 5.66659 6.33203C5.66659 7.62536 6.70659 8.66536 7.99992 8.66536C9.29325 8.66536 10.3333 7.62536 10.3333 6.33203C10.3333 5.0387 9.29325 3.9987 7.99992 3.9987ZM7.99992 7.33203C7.7347 7.33203 7.48035 7.22667 7.29281 7.03914C7.10528 6.8516 6.99992 6.59725 6.99992 6.33203C6.99992 6.06681 7.10528 5.81246 7.29281 5.62492C7.48035 5.43739 7.7347 5.33203 7.99992 5.33203C8.26514 5.33203 8.51949 5.43739 8.70703 5.62492C8.89456 5.81246 8.99992 6.06681 8.99992 6.33203C8.99992 6.59725 8.89456 6.8516 8.70703 7.03914C8.51949 7.22667 8.26514 7.33203 7.99992 7.33203Z" fill="#09273C"/>
</svg>
