<svg width="16" height="16" viewBox="0 0 16 16" fill="none" xmlns="http://www.w3.org/2000/svg">
<path d="M14 12.6654V13.332H2V12.6654L3.33333 11.332V7.33203C3.33333 5.26536 4.68667 3.44536 6.66667 2.8587C6.66667 2.79203 6.66667 2.73203 6.66667 2.66536C6.66667 2.31174 6.80714 1.9726 7.05719 1.72256C7.30724 1.47251 7.64638 1.33203 8 1.33203C8.35362 1.33203 8.69276 1.47251 8.94281 1.72256C9.19286 1.9726 9.33333 2.31174 9.33333 2.66536C9.33333 2.73203 9.33333 2.79203 9.33333 2.8587C11.3133 3.44536 12.6667 5.26536 12.6667 7.33203V11.332L14 12.6654ZM9.33333 13.9987C9.33333 14.3523 9.19286 14.6915 8.94281 14.9415C8.69276 15.1916 8.35362 15.332 8 15.332C7.64638 15.332 7.30724 15.1916 7.05719 14.9415C6.80714 14.6915 6.66667 14.3523 6.66667 13.9987" fill="white"/>
</svg>
