<svg width="16" height="16" viewBox="0 0 16 16" fill="none" xmlns="http://www.w3.org/2000/svg">
<path d="M8.00016 1.33594C7.12468 1.33594 6.25778 1.50838 5.44894 1.84341C4.6401 2.17844 3.90517 2.6695 3.28612 3.28856C2.03587 4.5388 1.3335 6.23449 1.3335 8.0026C1.3335 9.77071 2.03587 11.4664 3.28612 12.7167C3.90517 13.3357 4.6401 13.8268 5.44894 14.1618C6.25778 14.4968 7.12468 14.6693 8.00016 14.6693C9.76827 14.6693 11.464 13.9669 12.7142 12.7167C13.9644 11.4664 14.6668 9.77071 14.6668 8.0026C14.6668 7.12713 14.4944 6.26022 14.1594 5.45138C13.8243 4.64254 13.3333 3.90762 12.7142 3.28856C12.0951 2.6695 11.3602 2.17844 10.5514 1.84341C9.74255 1.50838 8.87564 1.33594 8.00016 1.33594ZM10.8002 10.8026L7.3335 8.66927V4.66927H8.3335V8.13594L11.3335 9.93594L10.8002 10.8026Z" fill="#09273C"/>
</svg>
