<svg width="30" height="30" viewBox="0 0 30 30" fill="none" xmlns="http://www.w3.org/2000/svg">
<path fill-rule="evenodd" clip-rule="evenodd" d="M12.2101 18.764H22.8826C24.3652 18.764 25.567 17.5622 25.567 16.0799V14.3039C25.567 12.8213 24.3652 11.6195 22.8826 11.6195H12.2101C10.7275 11.6195 9.52573 12.8213 9.52573 14.3039V16.0799C9.52573 17.5625 10.7275 18.764 12.2101 18.764ZM12.2104 9.88669H22.8826C24.3652 9.88669 25.5673 8.68489 25.5673 7.20229V5.42659C25.5673 3.94399 24.3655 2.74219 22.8826 2.74219H12.2104C10.7278 2.74219 9.52573 3.94399 9.52573 5.42659V7.20229C9.52573 8.68489 10.7275 9.88669 12.2104 9.88669ZM27.4117 20.4719H7.75123V6.45169C7.75483 6.40639 7.74163 6.32089 7.74163 6.27529C7.74163 5.34559 7.02313 4.56169 6.09253 4.56169H2.27893C1.34893 4.56169 0.594727 5.38999 0.594727 6.31939C0.594727 7.24969 1.34863 8.11489 2.27893 8.11489H4.20043V20.4719H4.07053C3.14113 20.4719 2.38783 21.2996 2.38783 22.2287C2.38783 23.1584 3.14113 24.0227 4.07053 24.0227H6.04663C6.04663 24.0263 6.04543 24.0296 6.04543 24.0335C6.04543 25.9784 7.62283 27.5561 9.56863 27.5561C11.5144 27.5561 13.0918 25.9787 13.0918 24.0335C13.0918 24.0299 13.0906 24.0266 13.0906 24.0227H18.4753C18.4753 24.0263 18.4741 24.0296 18.4741 24.0335C18.4741 25.9784 20.0515 27.5561 21.9973 27.5561C23.9428 27.5561 25.5205 25.9787 25.5205 24.0335C25.5205 24.0299 25.5193 24.0266 25.5193 24.0227H27.4111C28.3405 24.0227 29.0941 23.1587 29.0941 22.2287C29.0947 21.2996 28.3411 20.4719 27.4117 20.4719Z" fill="#1EFC06"/>
</svg>
