<svg width="17" height="17" viewBox="0 0 17 17" fill="none" xmlns="http://www.w3.org/2000/svg">
<path d="M8.49984 1.41797C12.3957 1.41797 15.5832 4.60547 15.5832 8.5013C15.5832 12.3971 12.3957 15.5846 8.49984 15.5846C4.604 15.5846 1.4165 12.3971 1.4165 8.5013C1.4165 4.60547 4.604 1.41797 8.49984 1.41797ZM8.49984 2.83464C7.154 2.83464 5.94984 3.25964 5.029 4.0388L12.9623 11.9721C13.6707 10.9805 14.1665 9.7763 14.1665 8.5013C14.1665 5.38464 11.6165 2.83464 8.49984 2.83464ZM11.9707 12.9638L4.03734 5.03047C3.25817 5.9513 2.83317 7.15547 2.83317 8.5013C2.83317 11.618 5.38317 14.168 8.49984 14.168C9.84567 14.168 11.0498 13.743 11.9707 12.9638Z" fill="#3B9ADA"/>
</svg>
