<svg width="60" height="60" viewBox="0 0 60 60" fill="none" xmlns="http://www.w3.org/2000/svg">
<path d="M26.4986 26.4088L26.5005 26.4077L49.1572 13.2944L36.267 35.625L36.2605 35.6362L36.2546 35.6478C35.0858 37.9386 32.728 39.5 30 39.5C28.1435 39.5 26.363 38.7625 25.0503 37.4498C23.7375 36.137 23 34.3565 23 32.5C23 29.8839 24.425 27.5971 26.4986 26.4088ZM15.4977 46.9798L15.6439 47.125H15.6543C16.2983 47.9087 16.254 49.0639 15.5214 49.7964C14.7417 50.5762 13.4565 50.577 12.6761 49.819C8.24238 45.384 5.5 39.2607 5.5 32.5C5.5 26.0022 8.08124 19.7705 12.6759 15.1759C17.2705 10.5812 23.5022 8 30 8C34.1134 8 37.9772 9.05456 41.3964 10.8156L37.1316 13.2729C34.9511 12.4541 32.475 12 30 12C24.5631 12 19.3488 14.1598 15.5043 18.0043C11.6598 21.8488 9.5 27.0631 9.5 32.5C9.5 38.1619 11.7808 43.2885 15.4977 46.9798ZM54.5 32.5C54.5 39.2607 51.7576 45.384 47.3239 49.819C46.5437 50.577 45.2833 50.5762 44.5036 49.7964C43.7238 49.0167 43.7238 47.7583 44.5036 46.9786C48.2186 43.2635 50.5 38.1628 50.5 32.5C50.5 30.0212 50.0446 27.5427 49.2019 25.2937L51.658 21.0309C53.4436 24.5116 54.5 28.3598 54.5 32.5Z" fill="url(#paint0_linear_4425_10700)" stroke="white"/>
<path d="M25.9998 27.5C33.5 23 47.9998 14.5 47.9998 14.5C47.9998 14.5 38.9466 31.6636 34.4998 37C32 40 27.9923 39.478 25.4998 37C22.8652 34.3807 22.8141 29.4114 25.9998 27.5Z" fill="black"/>
<defs>
<linearGradient id="paint0_linear_4425_10700" x1="45" y1="51" x2="12.5" y2="51" gradientUnits="userSpaceOnUse">
<stop stop-color="#19C8A6"/>
<stop offset="0.495777" stop-color="#98A857"/>
<stop offset="0.864583" stop-color="#F7911C"/>
<stop offset="1" stop-color="#FE4028"/>
</linearGradient>
</defs>
</svg>
