<svg width="60" height="60" viewBox="0 0 60 60" fill="none" xmlns="http://www.w3.org/2000/svg">
<path d="M25.505 27.7512C25.8006 27.7512 26.0932 27.693 26.3663 27.5799C26.6394 27.4668 26.8875 27.301 27.0965 27.0921C27.3054 26.8831 27.4712 26.635 27.5843 26.3619C27.6974 26.0888 27.7556 25.7962 27.7556 25.5006C27.7556 25.2051 27.6974 24.9124 27.5843 24.6393C27.4712 24.3663 27.3054 24.1182 27.0965 23.9092C26.8875 23.7002 26.6394 23.5344 26.3663 23.4213C26.0932 23.3082 25.8006 23.25 25.505 23.25C24.9081 23.25 24.3357 23.4871 23.9136 23.9092C23.4915 24.3313 23.2544 24.9037 23.2544 25.5006C23.2544 26.0975 23.4915 26.67 23.9136 27.0921C24.3357 27.5141 24.9081 27.7512 25.505 27.7512Z" fill="black"/>
<path fill-rule="evenodd" clip-rule="evenodd" d="M14.2625 37.51V52.5H35.6525V44.36H41.0187C41.3537 44.36 41.6737 44.2938 41.965 44.175L38.99 41.86H33.1525V50H16.7613V36.5025L16.0612 35.7763C14.0112 33.645 10 28.6637 10 22.4688C10 20.4312 10.7687 17.31 13.0825 14.7312C15.1237 12.455 18.5487 10.4 24.2537 10.0525V18.865C23.2673 19.0519 22.335 19.4566 21.5247 20.0494C20.7144 20.6423 20.0466 21.4084 19.5699 22.2921C19.0932 23.1757 18.8197 24.1545 18.7691 25.1572C18.7186 26.16 18.8924 27.1613 19.2778 28.0884C19.6633 29.0155 20.2507 29.8449 20.9973 30.5162C21.7438 31.1875 22.6307 31.6838 23.5934 31.969C24.556 32.2541 25.5702 32.321 26.5619 32.1646C27.5537 32.0082 28.4981 31.6325 29.3263 31.065L46.9137 44.7188C46.8054 45.3437 46.9115 45.9869 47.2147 46.5439C47.518 47.101 48.0006 47.5392 48.5843 47.7874C49.1679 48.0356 49.8183 48.0793 50.4299 47.9112C51.0415 47.7432 51.5784 47.3734 51.9533 46.8619C52.3283 46.3503 52.5193 45.7271 52.4954 45.0933C52.4715 44.4595 52.2341 43.8523 51.8217 43.3705C51.4093 42.8886 50.8461 42.5603 50.2236 42.4388C49.6011 42.3173 48.9558 42.4098 48.3925 42.7012L31.1 29.275C31.7258 28.3476 32.1113 27.2793 32.222 26.166C32.3326 25.0528 32.165 23.9295 31.734 22.897C31.3031 21.8646 30.6224 20.9554 29.7531 20.2512C28.8838 19.547 27.8531 19.0698 26.7537 18.8625V10.0087C29.9325 10.0675 32.135 10.4938 33.8013 11.1188C35.5662 11.7813 36.875 12.7175 38.1938 13.94L38.3713 14.105C39.6637 15.3025 40.0488 15.66 40.2675 16.2425L45.5587 30.33H41.0187V33.94L43.5187 35.8838V32.83H45.5587C45.9628 32.8306 46.3609 32.7331 46.7189 32.546C47.077 32.3589 47.3843 32.0877 47.6145 31.7557C47.8448 31.4237 47.991 31.0408 48.0407 30.6399C48.0904 30.2389 48.0422 29.8319 47.9 29.4538L42.6075 15.3625C42.1712 14.2 41.3275 13.425 40.265 12.45C40.141 12.3361 40.0172 12.222 39.8938 12.1075C36.9375 9.365 33.5738 7.5 25.9975 7.5C11.2575 7.5 7.5 17.3438 7.5 22.4688C7.5 29.6775 12.1037 35.27 14.2625 37.51ZM25.5037 29.75C26.0619 29.7501 26.6145 29.6402 27.1302 29.4267C27.6459 29.2132 28.1144 28.9002 28.5091 28.5056C28.9038 28.1111 29.217 27.6426 29.4306 27.127C29.6443 26.6114 29.7543 26.0587 29.7544 25.5006C29.7545 24.9425 29.6446 24.3898 29.4311 23.8742C29.2176 23.3585 28.9046 22.8899 28.51 22.4952C28.1154 22.1005 27.647 21.7874 27.1314 21.5738C26.6158 21.3601 26.0631 21.2501 25.505 21.25C24.3778 21.25 23.2968 21.6978 22.4998 22.4948C21.7028 23.2918 21.255 24.3728 21.255 25.5C21.255 26.6272 21.7028 27.7082 22.4998 28.5052C23.2968 29.3022 24.3778 29.75 25.505 29.75H25.5037Z" fill="url(#paint0_linear_4425_10691)"/>
<defs>
<linearGradient id="paint0_linear_4425_10691" x1="29.9987" y1="7.5" x2="29.9987" y2="52.5" gradientUnits="userSpaceOnUse">
<stop offset="0.317708" stop-color="#19C8A6"/>
<stop offset="0.723958" stop-color="#F7941D"/>
<stop offset="1" stop-color="#F94232"/>
</linearGradient>
</defs>
</svg>
