<svg width="18" height="18" viewBox="0 0 18 18" fill="none" xmlns="http://www.w3.org/2000/svg">
<path d="M9.51462 12.2894C9.19787 12.0993 8.80212 12.0993 8.48538 12.2894L7.63938 12.7972C6.88219 13.2516 5.95065 12.5732 6.15078 11.7131L6.36996 10.7711C6.45422 10.409 6.33062 10.03 6.04906 9.78718L5.32162 9.15984C4.65061 8.58116 5.00805 7.48021 5.89102 7.40606L6.86062 7.32463C7.22995 7.29361 7.55183 7.06087 7.69701 6.71987L8.07992 5.82052C8.42522 5.00949 9.57478 5.00949 9.92008 5.82052L10.303 6.71987C10.4482 7.06087 10.7701 7.29361 11.1394 7.32463L12.109 7.40606C12.992 7.48021 13.3494 8.58116 12.6784 9.15984L11.9509 9.78718C11.6694 10.03 11.5458 10.409 11.63 10.7711L11.8492 11.7131C12.0493 12.5732 11.1178 13.2516 10.3606 12.7972L9.51462 12.2894ZM16.1956 8.03193C16.8671 7.4536 16.5101 6.35223 15.627 6.27775L12.1288 5.98269C11.7598 5.95157 11.4382 5.71906 11.2929 5.3784L9.91989 2.15773C9.57438 1.34729 8.42562 1.34729 8.08011 2.15773L6.70706 5.3784C6.56182 5.71906 6.24022 5.95157 5.87121 5.98269L2.36996 6.278C1.4873 6.35245 1.13008 7.45294 1.80074 8.0316L4.44701 10.3148C4.72858 10.5578 4.85208 10.9369 4.76761 11.2991L3.9743 14.7005C3.77368 15.5607 4.70527 16.2396 5.46268 15.7851L8.48549 13.9714C8.80218 13.7813 9.19782 13.7813 9.51451 13.9714L12.5335 15.7828C13.2915 16.2376 14.2235 15.5575 14.0216 14.6969L13.2245 11.3004C13.1394 10.9376 13.2631 10.5575 13.5455 10.3142L16.1956 8.03193Z" fill="#F7941D"/>
</svg>
