<svg width="24" height="24" viewBox="0 0 24 24" fill="none" xmlns="http://www.w3.org/2000/svg">
<circle cx="12" cy="13" r="5" fill="#FFC501"/>
<path d="M12.7753 15.274C12.2985 14.9862 11.7015 14.9862 11.2247 15.274L10.0055 16.0101C9.6272 16.2385 9.16034 15.8999 9.25991 15.4694L9.58151 14.079C9.70668 13.5379 9.52257 12.9719 9.10301 12.6079L8.02723 11.6747C7.69318 11.3849 7.87213 10.836 8.31278 10.7988L9.73063 10.679C10.2855 10.6322 10.7687 10.2818 10.9857 9.76904L11.5395 8.4606C11.7117 8.05379 12.2883 8.05379 12.4605 8.4606L13.0143 9.76904C13.2313 10.2818 13.7145 10.6322 14.2694 10.679L15.6872 10.7988C16.1279 10.836 16.3068 11.3849 15.9728 11.6747L14.897 12.6079C14.4774 12.9719 14.2933 13.5379 14.4185 14.079L14.7401 15.4694C14.8397 15.8999 14.3728 16.2385 13.9945 16.0101L12.7753 15.274ZM20.536 11.1698C21.5389 10.301 21.0028 8.6536 19.6806 8.54143L15.4531 8.18277C15.2683 8.16709 15.1074 8.05042 15.035 7.87967L13.3811 3.97726C12.8642 2.75772 11.1358 2.75771 10.6189 3.97725L8.96496 7.87967C8.89259 8.05042 8.73166 8.16709 8.54687 8.18277L4.31637 8.54168C2.99488 8.6538 2.45838 10.2999 3.45999 11.1692L6.66759 13.953C6.80745 14.0744 6.86877 14.2631 6.82694 14.4436L5.86721 18.5827C5.56774 19.8743 6.96841 20.8909 8.10355 20.2058L11.7416 18.01C11.9005 17.9141 12.0995 17.9141 12.2584 18.01L15.8926 20.2034C17.0286 20.8891 18.43 19.8706 18.1285 18.5785L17.1641 14.4442C17.1219 14.2635 17.1833 14.0742 17.3236 13.9527L20.536 11.1698Z" fill="#FFC501" stroke="#FFC501"/>
</svg>
