<svg width="24" height="24" viewBox="0 0 24 24" fill="none" xmlns="http://www.w3.org/2000/svg">
<path d="M12.5168 15.702C12.199 15.5101 11.801 15.5101 11.4832 15.702L10.2639 16.4381C9.50735 16.8949 8.57362 16.2177 8.77277 15.3567L9.09437 13.9664C9.17781 13.6056 9.05508 13.2283 8.77537 12.9856L7.6996 12.0524C7.03149 11.4729 7.38939 10.375 8.2707 10.3006L9.68855 10.1808C10.0584 10.1496 10.3806 9.91599 10.5253 9.57415L11.0791 8.2657C11.4235 7.45209 12.5765 7.45209 12.9209 8.2657L13.4747 9.57415C13.6194 9.91599 13.9416 10.1496 14.3115 10.1808L15.7293 10.3006C16.6106 10.375 16.9685 11.4729 16.3004 12.0524L15.2246 12.9856C14.9449 13.2283 14.8222 13.6056 14.9056 13.9664L15.2272 15.3567C15.4264 16.2177 14.4927 16.8949 13.7361 16.4381L12.5168 15.702ZM20.2086 10.7919C20.8772 10.2127 20.5198 9.11442 19.6384 9.03964L15.4109 8.68098C15.0413 8.64962 14.7194 8.41629 14.5747 8.07479L12.9207 4.17237C12.5761 3.35934 11.4239 3.35934 11.0793 4.17237L9.42532 8.07479C9.28058 8.41629 8.95871 8.64962 8.58914 8.68098L4.35864 9.03989C3.47765 9.11464 3.11998 10.212 3.78772 10.7915L6.99532 13.5754C7.27505 13.8182 7.39768 14.1957 7.31401 14.5565L6.35429 18.6957C6.15464 19.5567 7.08842 20.2344 7.84518 19.7777L11.4833 17.5819C11.8011 17.3901 12.1989 17.3901 12.5167 17.5819L16.151 19.7754C16.9083 20.2325 17.8425 19.5535 17.6416 18.692L16.6771 14.5578C16.5928 14.1963 16.7156 13.8178 16.9962 13.5748L20.2086 10.7919Z" fill="#6A7B86" fill-opacity="0.5"/>
<path d="M12.7753 15.274C12.2985 14.9862 11.7015 14.9862 11.2247 15.274L10.0055 16.0101C9.6272 16.2385 9.16034 15.8999 9.25991 15.4694L9.58151 14.079C9.70668 13.5379 9.52257 12.9719 9.10301 12.6079L8.02723 11.6747C7.69318 11.3849 7.87213 10.836 8.31278 10.7988L9.73063 10.679C10.2855 10.6322 10.7687 10.2818 10.9857 9.76904L11.5395 8.4606C11.7117 8.05379 12.2883 8.05379 12.4605 8.4606L13.0143 9.76904C13.2313 10.2818 13.7145 10.6322 14.2694 10.679L15.6872 10.7988C16.1279 10.836 16.3068 11.3849 15.9728 11.6747L14.897 12.6079C14.4774 12.9719 14.2933 13.5379 14.4185 14.079L14.7401 15.4694C14.8397 15.8999 14.3728 16.2385 13.9945 16.0101L12.7753 15.274ZM20.536 11.1698C21.5389 10.301 21.0028 8.6536 19.6806 8.54143L15.4531 8.18277C15.2683 8.16709 15.1074 8.05042 15.035 7.87967L13.3811 3.97726C12.8642 2.75772 11.1358 2.75771 10.6189 3.97725L8.96496 7.87967C8.89259 8.05042 8.73166 8.16709 8.54687 8.18277L4.31637 8.54168C2.99488 8.6538 2.45838 10.2999 3.45999 11.1692L6.66759 13.953C6.80745 14.0744 6.86877 14.2631 6.82694 14.4436L5.86721 18.5827C5.56774 19.8743 6.96841 20.8909 8.10355 20.2058L11.7416 18.01C11.9005 17.9141 12.0995 17.9141 12.2584 18.01L15.8926 20.2034C17.0286 20.8891 18.43 19.8706 18.1285 18.5785L17.1641 14.4442C17.1219 14.2635 17.1833 14.0742 17.3236 13.9527L20.536 11.1698Z" stroke="#6A7B86" stroke-opacity="0.5"/>
</svg>
