<svg width="24" height="24" viewBox="0 0 24 24" fill="none" xmlns="http://www.w3.org/2000/svg">
<path fill-rule="evenodd" clip-rule="evenodd" d="M9.76815 15.0128H18.3061C19.4922 15.0128 20.4537 14.0513 20.4537 12.8655V11.4447C20.4537 10.2586 19.4922 9.29715 18.3061 9.29715H9.76815C8.58207 9.29715 7.62063 10.2586 7.62063 11.4447V12.8655C7.62063 14.0516 8.58207 15.0128 9.76815 15.0128ZM9.76839 7.91091H18.3061C19.4922 7.91091 20.4539 6.94947 20.4539 5.76339V4.34283C20.4539 3.15675 19.4925 2.19531 18.3061 2.19531H9.76839C8.58231 2.19531 7.62063 3.15675 7.62063 4.34283V5.76339C7.62063 6.94947 8.58207 7.91091 9.76839 7.91091ZM21.9294 16.3791H6.20103V5.16291C6.20391 5.12667 6.19335 5.05827 6.19335 5.02179C6.19335 4.27803 5.61855 3.65091 4.87407 3.65091H1.82319C1.07919 3.65091 0.47583 4.31355 0.47583 5.05707C0.47583 5.80131 1.07895 6.49347 1.82319 6.49347H3.36039V16.3791H3.25647C2.51295 16.3791 1.91031 17.0412 1.91031 17.7845C1.91031 18.5283 2.51295 19.2197 3.25647 19.2197H4.83735C4.83735 19.2226 4.83639 19.2252 4.83639 19.2284C4.83639 20.7843 6.09831 22.0464 7.65495 22.0464C9.21159 22.0464 10.4735 20.7845 10.4735 19.2284C10.4735 19.2255 10.4725 19.2228 10.4725 19.2197H14.7803C14.7803 19.2226 14.7793 19.2252 14.7793 19.2284C14.7793 20.7843 16.0413 22.0464 17.5979 22.0464C19.1543 22.0464 20.4165 20.7845 20.4165 19.2284C20.4165 19.2255 20.4155 19.2228 20.4155 19.2197H21.9289C22.6725 19.2197 23.2753 18.5285 23.2753 17.7845C23.2758 17.0412 22.6729 16.3791 21.9294 16.3791Z" fill="white"/>
</svg>
