<svg width="28" height="28" viewBox="0 0 28 28" fill="none" xmlns="http://www.w3.org/2000/svg">
<path d="M12.8613 13.4613L11.6666 11.6693L9.33325 15.1693H19.8333L15.7499 9.33594L12.8613 13.4613Z" fill="#3B9ADA"/>
<path d="M11.0868 10.4992C12.0552 10.4992 12.8403 9.71412 12.8403 8.74569C12.8403 7.77726 12.0552 6.99219 11.0868 6.99219C10.1183 6.99219 9.33325 7.77726 9.33325 8.74569C9.33325 9.71412 10.1183 10.4992 11.0868 10.4992Z" fill="#3B9ADA"/>
<path d="M7.01011 23.4859L7.0101 23.4859H7.014H24.35V25.5193H7C6.32549 25.5193 5.4846 25.2948 4.81554 24.7646C4.15188 24.2387 3.65 23.4068 3.65 22.1693V5.83594C3.65 4.59838 4.15188 3.76647 4.81554 3.24056C5.4846 2.71036 6.32549 2.48594 7 2.48594H22.1667C23.3707 2.48594 24.35 3.46528 24.35 4.66927V20.8526H7.014V20.8526L7.01011 20.8527C6.72662 20.86 6.39479 20.9194 6.13103 21.1189C5.85917 21.3247 5.68333 21.6611 5.68333 22.1693C5.68333 22.6775 5.85917 23.0139 6.13103 23.2196C6.39479 23.4192 6.72662 23.4785 7.01011 23.4859ZM22.1667 18.8193H22.3167V18.6693V4.66927V4.51927H22.1667H7V4.51922L6.996 4.51932C6.71898 4.52671 6.39069 4.58627 6.12883 4.78595C5.85912 4.99163 5.68333 5.32776 5.68333 5.83594V18.6693V18.8193H5.83333H22.1667Z" fill="#3B9ADA" stroke="#F8FCFF" stroke-width="0.3"/>
</svg>
