<svg width="24" height="24" viewBox="0 0 24 24" fill="none" xmlns="http://www.w3.org/2000/svg">
<path fill-rule="evenodd" clip-rule="evenodd" d="M4.4801 1.60156H4.4001C4.0337 1.60156 3.7185 1.60156 3.4401 1.66716C3.00912 1.77015 2.61506 1.99044 2.30159 2.30363C1.98812 2.61681 1.76747 3.01067 1.6641 3.44156C1.6001 3.71996 1.6001 4.03356 1.6001 4.40156V8.40156C1.6001 8.76796 1.6001 9.08316 1.6657 9.36156C1.76868 9.79254 1.98897 10.1866 2.30216 10.5001C2.61535 10.8135 3.00921 11.0342 3.4401 11.1376C3.7185 11.2016 4.0321 11.2016 4.4001 11.2016H8.4001C8.7665 11.2016 9.0817 11.2016 9.3601 11.136C9.79108 11.033 10.1851 10.8127 10.4986 10.4995C10.8121 10.1863 11.0327 9.79245 11.1361 9.36156C11.2001 9.08316 11.2001 8.76956 11.2001 8.40156V4.40156C11.2001 4.03516 11.2001 3.71996 11.1345 3.44156C11.0315 3.01058 10.8112 2.61652 10.498 2.30305C10.1848 1.98958 9.79099 1.76893 9.3601 1.66556C9.0817 1.60156 8.7681 1.60156 8.4001 1.60156H4.4801ZM3.8129 3.22396C3.8817 3.20796 3.9889 3.20156 4.4801 3.20156H8.3201C8.8129 3.20156 8.9185 3.20636 8.9873 3.22396C9.13103 3.25833 9.26242 3.33184 9.36692 3.43634C9.47142 3.54084 9.54493 3.67223 9.5793 3.81596C9.5953 3.88316 9.6001 3.98876 9.6001 4.48156V8.32156C9.6001 8.81436 9.5953 8.91996 9.5777 8.98876C9.54333 9.13249 9.46982 9.26389 9.36532 9.36839C9.26082 9.47288 9.12943 9.54639 8.9857 9.58076C8.9201 9.59516 8.8145 9.60156 8.3201 9.60156H4.4801C3.9873 9.60156 3.8817 9.59676 3.8129 9.57916C3.66917 9.54479 3.53777 9.47128 3.43327 9.36679C3.32878 9.26229 3.25527 9.13089 3.2209 8.98716C3.2065 8.92156 3.2001 8.81596 3.2001 8.32156V4.48156C3.2001 3.98876 3.2049 3.88316 3.2225 3.81436C3.25687 3.67063 3.33038 3.53924 3.43487 3.43474C3.53937 3.33024 3.67077 3.25673 3.8145 3.22236L3.8129 3.22396ZM15.6801 1.60156H15.6001C15.2337 1.60156 14.9185 1.60156 14.6401 1.66716C14.2091 1.77015 13.8151 1.99044 13.5016 2.30363C13.1881 2.61681 12.9675 3.01067 12.8641 3.44156C12.8001 3.71996 12.8001 4.03356 12.8001 4.40156V8.40156C12.8001 8.76796 12.8001 9.08316 12.8657 9.36156C12.9687 9.79254 13.189 10.1866 13.5022 10.5001C13.8154 10.8135 14.2092 11.0342 14.6401 11.1376C14.9185 11.2016 15.2321 11.2016 15.6001 11.2016H19.6001C19.9665 11.2016 20.2817 11.2016 20.5601 11.136C20.9911 11.033 21.3851 10.8127 21.6986 10.4995C22.0121 10.1863 22.2327 9.79245 22.3361 9.36156C22.4001 9.08316 22.4001 8.76956 22.4001 8.40156V4.40156C22.4001 4.03516 22.4001 3.71996 22.3345 3.44156C22.2315 3.01058 22.0112 2.61652 21.698 2.30305C21.3848 1.98958 20.991 1.76893 20.5601 1.66556C20.2817 1.60156 19.9681 1.60156 19.6001 1.60156H15.6801ZM15.0129 3.22396C15.0817 3.20796 15.1889 3.20156 15.6801 3.20156H19.5201C20.0129 3.20156 20.1185 3.20636 20.1873 3.22396C20.331 3.25833 20.4624 3.33184 20.5669 3.43634C20.6714 3.54084 20.7449 3.67223 20.7793 3.81596C20.7953 3.88316 20.8001 3.98876 20.8001 4.48156V8.32156C20.8001 8.81436 20.7937 8.91996 20.7777 8.98876C20.7433 9.13249 20.6698 9.26389 20.5653 9.36839C20.4608 9.47288 20.3294 9.54639 20.1857 9.58076C20.1185 9.59676 20.0129 9.60156 19.5201 9.60156H15.6801C15.1873 9.60156 15.0817 9.59676 15.0129 9.57916C14.8692 9.54479 14.7378 9.47128 14.6333 9.36679C14.5288 9.26229 14.4553 9.13089 14.4209 8.98716C14.4065 8.92156 14.4001 8.81596 14.4001 8.32156V4.48156C14.4001 3.98876 14.4049 3.88316 14.4225 3.81436C14.4569 3.67063 14.5304 3.53924 14.6349 3.43474C14.7394 3.33024 14.8708 3.25673 15.0145 3.22236L15.0129 3.22396ZM4.4001 12.8016H8.4001C8.7665 12.8016 9.0817 12.8016 9.3601 12.8672C9.79108 12.9701 10.1851 13.1904 10.4986 13.5036C10.8121 13.8168 11.0327 14.2107 11.1361 14.6416C11.2001 14.92 11.2001 15.2336 11.2001 15.6016V19.6016C11.2001 19.968 11.2001 20.2832 11.1345 20.5616C11.0315 20.9925 10.8112 21.3866 10.498 21.7001C10.1848 22.0135 9.79099 22.2342 9.3601 22.3376C9.0817 22.4016 8.7681 22.4016 8.4001 22.4016H4.4001C4.0337 22.4016 3.7185 22.4016 3.4401 22.336C3.00912 22.233 2.61506 22.0127 2.30159 21.6995C1.98812 21.3863 1.76747 20.9925 1.6641 20.5616C1.6001 20.2832 1.6001 19.9696 1.6001 19.6016V15.6016C1.6001 15.2352 1.6001 14.92 1.6657 14.6416C1.76868 14.2106 1.98897 13.8165 2.30216 13.5031C2.61535 13.1896 3.00921 12.9689 3.4401 12.8656C3.7185 12.8016 4.0321 12.8016 4.4001 12.8016ZM4.4801 14.4016C3.9873 14.4016 3.8817 14.4064 3.8129 14.424C3.66917 14.4583 3.53777 14.5318 3.43327 14.6363C3.32878 14.7408 3.25527 14.8722 3.2209 15.016C3.2065 15.0816 3.2001 15.1872 3.2001 15.6816V19.5216C3.2001 20.0144 3.2049 20.12 3.2225 20.1888C3.25687 20.3325 3.33038 20.4639 3.43487 20.5684C3.53937 20.6729 3.67077 20.7464 3.8145 20.7808C3.8817 20.7968 3.9873 20.8016 4.4801 20.8016H8.3201C8.8129 20.8016 8.9185 20.7952 8.9873 20.7792C9.13103 20.7448 9.26242 20.6713 9.36692 20.5668C9.47142 20.4623 9.54493 20.3309 9.5793 20.1872C9.5953 20.12 9.6001 20.0144 9.6001 19.5216V15.6816C9.6001 15.1888 9.5953 15.0832 9.5777 15.0144C9.54333 14.8706 9.46982 14.7392 9.36532 14.6347C9.26082 14.5302 9.12943 14.4567 8.9857 14.4224C8.9201 14.408 8.8145 14.4016 8.3201 14.4016H4.4801ZM15.6801 12.8016H15.6001C15.2337 12.8016 14.9185 12.8016 14.6401 12.8672C14.2091 12.9701 13.8151 13.1904 13.5016 13.5036C13.1881 13.8168 12.9675 14.2107 12.8641 14.6416C12.8001 14.92 12.8001 15.2336 12.8001 15.6016V19.6016C12.8001 19.968 12.8001 20.2832 12.8657 20.5616C12.9687 20.9925 13.189 21.3866 13.5022 21.7001C13.8154 22.0135 14.2092 22.2342 14.6401 22.3376C14.9185 22.4032 15.2337 22.4032 15.6001 22.4032H19.6001C19.9665 22.4032 20.2817 22.4032 20.5601 22.3376C20.9908 22.2343 21.3845 22.0139 21.6977 21.7007C22.0108 21.3876 22.2313 20.9939 22.3345 20.5632C22.4001 20.2848 22.4001 19.9696 22.4001 19.6032V15.6016C22.4001 15.2352 22.4001 14.92 22.3345 14.6416C22.2315 14.2106 22.0112 13.8165 21.698 13.5031C21.3848 13.1896 20.991 12.9689 20.5601 12.8656C20.2817 12.8016 19.9681 12.8016 19.6001 12.8016H15.6801ZM15.0129 14.424C15.0817 14.408 15.1889 14.4016 15.6801 14.4016H19.5201C20.0129 14.4016 20.1185 14.4064 20.1873 14.424C20.331 14.4583 20.4624 14.5318 20.5669 14.6363C20.6714 14.7408 20.7449 14.8722 20.7793 15.016C20.7953 15.0832 20.8001 15.1888 20.8001 15.6816V19.5216C20.8001 20.0144 20.7937 20.12 20.7777 20.1888C20.7433 20.3325 20.6698 20.4639 20.5653 20.5684C20.4608 20.6729 20.3294 20.7464 20.1857 20.7808C20.1185 20.7968 20.0129 20.8016 19.5201 20.8016H15.6801C15.1873 20.8016 15.0817 20.7952 15.0129 20.7792C14.8692 20.7448 14.7378 20.6713 14.6333 20.5668C14.5288 20.4623 14.4553 20.3309 14.4209 20.1872C14.4065 20.1216 14.4001 20.016 14.4001 19.5216V15.6816C14.4001 15.1888 14.4049 15.0832 14.4225 15.0144C14.4569 14.8706 14.5304 14.7392 14.6349 14.6347C14.7394 14.5302 14.8708 14.4567 15.0145 14.4224L15.0129 14.424Z" fill="#09273C"/>
</svg>
