<svg width="28" height="28" viewBox="0 0 28 28" fill="none" xmlns="http://www.w3.org/2000/svg">
<path d="M23.2175 20.9059L23.1833 20.9475V21.0013V26.018C23.1833 26.3082 23.0142 26.5481 22.7878 26.6553C22.5678 26.7595 22.286 26.7419 22.0393 26.4952L19.9833 24.4392V21.0013V20.9475L19.949 20.9059L16.6824 16.9393L16.6818 16.9386C16.4363 16.6439 16.4297 16.2438 16.5987 15.9059C16.7676 15.568 17.1 15.318 17.4999 15.318H25.6666C26.4782 15.318 26.9873 16.2281 26.4808 16.9434L23.2175 20.9059ZM17.3499 21.8723V23.1846H2.48325V19.8346C2.48325 19.1013 2.84185 18.453 3.45079 17.8864C4.06103 17.3186 4.91375 16.8421 5.8742 16.4594C7.79526 15.6939 10.1097 15.318 11.6666 15.318C12.2674 15.318 12.9568 15.4055 13.7473 15.5059C13.8055 15.5132 13.8641 15.5207 13.9234 15.5282C13.7665 16.1495 13.8469 16.8311 14.0201 17.4365C13.2607 17.3315 12.4168 17.2346 11.6666 17.2346C9.89385 17.2346 8.09597 17.6773 6.74109 18.2074C6.06364 18.4725 5.49181 18.7615 5.08651 19.0317C4.88432 19.1665 4.71868 19.2998 4.6018 19.4268C4.49027 19.5479 4.39992 19.6881 4.39992 19.8346V21.118V21.268H4.54992H16.8463L17.3499 21.8723ZM16.1833 9.33464C16.1833 11.8185 14.1504 13.8513 11.6666 13.8513C9.18276 13.8513 7.14992 11.8185 7.14992 9.33464C7.14992 6.85081 9.18276 4.81797 11.6666 4.81797C14.1504 4.81797 16.1833 6.85081 16.1833 9.33464ZM14.1499 9.33464C14.1499 7.96846 13.0328 6.8513 11.6666 6.8513C10.3004 6.8513 9.18325 7.96846 9.18325 9.33464C9.18325 10.7008 10.3004 11.818 11.6666 11.818C13.0328 11.818 14.1499 10.7008 14.1499 9.33464Z" fill="#3B9ADA" stroke="#F8FCFF" stroke-width="0.3"/>
</svg>
