<svg width="24" height="24" viewBox="0 0 24 24" fill="none" xmlns="http://www.w3.org/2000/svg">
<path d="M18.9069 6.43908L11.2519 14.0941C11.4789 14.4191 11.6719 14.7701 11.8269 15.1421L13.7369 19.7411L18.9069 6.43808V6.43908ZM9.90491 12.7471L17.5609 5.09108L4.25791 10.2611L8.85691 12.1721C9.22606 12.3252 9.57746 12.518 9.90491 12.7471ZM21.5229 4.88508L15.4959 20.3911C15.1159 21.3711 14.0189 21.8741 13.0469 21.5151C12.8101 21.4276 12.594 21.2921 12.4121 21.1171C12.2302 20.942 12.0865 20.7313 11.9899 20.4981L10.0799 15.8991C9.70827 15.0028 8.99614 14.2907 8.09991 13.9191L3.49991 12.0091C2.54591 11.6121 2.10991 10.5091 2.52791 9.54308C2.6304 9.30704 2.7786 9.09363 2.96396 8.91513C3.14932 8.73664 3.36817 8.5966 3.60791 8.50308L19.1139 2.47408C19.4508 2.3383 19.8203 2.30461 20.1762 2.37719C20.5321 2.44977 20.8588 2.62542 21.1157 2.88228C21.3726 3.13914 21.5482 3.46587 21.6208 3.8218C21.6934 4.17774 21.6597 4.54715 21.5239 4.88408L21.5229 4.88508Z" fill="#09273C"/>
</svg>
