<svg width="24" height="24" viewBox="0 0 24 24" fill="none" xmlns="http://www.w3.org/2000/svg">
<path d="M11.15 9V8.85H11H10C8.97284 8.85 8.15 8.02716 8.15 7V4C8.15 2.97284 8.97284 2.15 10 2.15H14C15.0272 2.15 15.85 2.97284 15.85 4V7C15.85 8.02716 15.0272 8.85 14 8.85H13H12.85V9V11V11.15H13H21.85V12.85H18H17.85V13V15V15.15H18H19C20.0272 15.15 20.85 15.9728 20.85 17V20C20.85 21.0272 20.0272 21.85 19 21.85H15C13.9728 21.85 13.15 21.0272 13.15 20V17C13.15 15.9728 13.9728 15.15 15 15.15H16H16.15V15V13V12.85H16H8H7.85V13V15V15.15H8H9C10.0272 15.15 10.85 15.9728 10.85 17V20C10.85 21.0272 10.0272 21.85 9 21.85H5C3.97284 21.85 3.15 21.0272 3.15 20V17C3.15 15.9728 3.97284 15.15 5 15.15H6H6.15V15V13V12.85H6H2.15V11.15H11H11.15V11V9ZM10 3.85H9.85V4V7V7.15H10H14H14.15V7V4V3.85H14H10ZM5 16.85H4.85V17V20V20.15H5H9H9.15V20V17V16.85H9H5ZM15 16.85H14.85V17V20V20.15H15H19H19.15V20V17V16.85H19H15Z" fill="black" stroke="white" stroke-width="0.3"/>
</svg>
