<svg width="28" height="28" viewBox="0 0 28 28" fill="none" xmlns="http://www.w3.org/2000/svg">
<path d="M20.9999 16.932H21.5999V16.332V13.9987V13.3987H20.9999H14.5833H14.3347L14.159 13.5744L11.8257 15.9078L10.8014 16.932H12.2499H20.9999ZM6.39992 16.332V16.932H6.99992H9.88159H10.1301L10.3059 16.7563L18.3325 8.72963C18.8 8.26218 18.8002 7.52105 18.3331 7.05337C18.3329 7.05317 18.3327 7.05297 18.3325 7.05277L16.2804 4.98897L16.2744 4.98291L16.2682 4.97703C15.8094 4.54123 15.0643 4.52597 14.6025 4.98763C14.6024 4.98768 14.6024 4.98772 14.6023 4.98777L6.57627 12.9905L6.39992 13.1663V13.4154V16.332ZM6.99992 20.3987H6.75139L6.57565 20.5744L2.93325 24.2168V4.66536C2.93325 4.20566 3.11587 3.76478 3.44093 3.43971C3.766 3.11465 4.20688 2.93203 4.66659 2.93203H23.3333C24.2872 2.93203 25.0666 3.70369 25.0666 4.66536V18.6654C25.0666 19.1251 24.884 19.566 24.5589 19.891C24.2338 20.2161 23.793 20.3987 23.3333 20.3987H6.99992Z" stroke="#3B9ADA" stroke-width="1.2"/>
</svg>
