<svg width="24" height="24" viewBox="0 0 24 24" fill="none" xmlns="http://www.w3.org/2000/svg">
<path d="M5.4 14.6V14V11.5V11.251L5.57635 11.0751L12.4557 4.21574C12.4558 4.21566 12.4559 4.21558 12.456 4.2155L12.4564 4.21512L12.88 4.64C13.07 4.45 13.39 4.45 13.59 4.64L5.4 14.6ZM5.4 14.6H6H8.47H8.71853L8.89426 14.4243L15.7743 7.54426C16.2083 7.11023 16.2086 6.42095 15.7751 5.98659L5.4 14.6ZM18 14.6H18.6V14V12V11.4H18H12.5H12.2515L12.0757 11.5757L10.0757 13.5757L9.05147 14.6H10.5H18ZM6 17.4H5.75147L5.57574 17.5757L2.6 20.5515V4C2.6 3.6287 2.7475 3.2726 3.01005 3.01005C3.2726 2.7475 3.6287 2.6 4 2.6H20C20.7706 2.6 21.4 3.22332 21.4 4V16C21.4 16.3713 21.2525 16.7274 20.9899 16.9899C20.7274 17.2525 20.3713 17.4 20 17.4H6Z" fill="white" stroke="black" stroke-width="1.2"/>
</svg>
