<svg width="24" height="24" viewBox="0 0 24 24" fill="none" xmlns="http://www.w3.org/2000/svg">
<path fill-rule="evenodd" clip-rule="evenodd" d="M16.6418 3C19.9488 3 22.6388 5.69 22.6388 8.998V16.175C22.6388 19.482 19.9488 22.173 16.6418 22.173H7.99776C4.69076 22.173 1.99976 19.482 1.99976 16.175V8.998C1.99976 5.69 4.69076 3 7.99776 3H16.6418ZM16.6418 4.5H7.99776C5.51776 4.5 3.49976 6.518 3.49976 8.998V16.175C3.49976 18.655 5.51776 20.673 7.99776 20.673H16.6418C19.1218 20.673 21.1388 18.655 21.1388 16.175V15.895L17.8409 15.8956C15.9439 15.8956 14.3999 14.3526 14.3989 12.4566C14.3989 10.5586 15.9429 9.0146 17.8409 9.0136L21.1388 9.013V8.998C21.1388 6.518 19.1218 4.5 16.6418 4.5ZM21.1388 10.513L17.8409 10.5136C16.7699 10.5146 15.8989 11.3856 15.8989 12.4556C15.8989 13.5246 16.7709 14.3956 17.8409 14.3956L21.1388 14.395V10.513ZM18.2985 11.6436C18.7125 11.6436 19.0485 11.9796 19.0485 12.3936C19.0485 12.8076 18.7125 13.1436 18.2985 13.1436H17.9865C17.5725 13.1436 17.2365 12.8076 17.2365 12.3936C17.2365 11.9796 17.5725 11.6436 17.9865 11.6436H18.2985ZM12.6848 7.5381C13.0988 7.5381 13.4348 7.8741 13.4348 8.2881C13.4348 8.7021 13.0988 9.0381 12.6848 9.0381H7.28576C6.87176 9.0381 6.53576 8.7021 6.53576 8.2881C6.53576 7.8741 6.87176 7.5381 7.28576 7.5381H12.6848Z" fill="black"/>
</svg>
