<svg width="28" height="28" viewBox="0 0 28 28" fill="none" xmlns="http://www.w3.org/2000/svg">
<path fill-rule="evenodd" clip-rule="evenodd" d="M19.4153 3.5C23.2735 3.5 26.4118 6.63833 26.4118 10.4977V18.8708C26.4118 22.729 23.2735 25.8685 19.4153 25.8685H9.33068C5.47251 25.8685 2.33301 22.729 2.33301 18.8708V10.4977C2.33301 6.63833 5.47251 3.5 9.33068 3.5H19.4153ZM19.4153 5.25H9.33068C6.43734 5.25 4.08301 7.60433 4.08301 10.4977V18.8708C4.08301 21.7642 6.43734 24.1185 9.33068 24.1185H19.4153C22.3087 24.1185 24.6618 21.7642 24.6618 18.8708V18.5442L20.8143 18.5449C18.6011 18.5449 16.7998 16.7447 16.7986 14.5327C16.7986 12.3184 18.6 10.517 20.8143 10.5159L24.6618 10.5152V10.4977C24.6618 7.60433 22.3087 5.25 19.4153 5.25ZM24.6618 12.2652L20.8143 12.2659C19.5648 12.267 18.5486 13.2832 18.5486 14.5315C18.5486 15.7787 19.566 16.7949 20.8143 16.7949L24.6618 16.7942V12.2652ZM21.3482 13.5842C21.8312 13.5842 22.2232 13.9762 22.2232 14.4592C22.2232 14.9422 21.8312 15.3342 21.3482 15.3342H20.9842C20.5012 15.3342 20.1092 14.9422 20.1092 14.4592C20.1092 13.9762 20.5012 13.5842 20.9842 13.5842H21.3482ZM14.7988 8.79445C15.2818 8.79445 15.6738 9.18645 15.6738 9.66945C15.6738 10.1525 15.2818 10.5445 14.7988 10.5445H8.50001C8.01701 10.5445 7.62501 10.1525 7.62501 9.66945C7.62501 9.18645 8.01701 8.79445 8.50001 8.79445H14.7988Z" fill="#3B9ADA"/>
</svg>
