<svg width="152" height="126" viewBox="0 0 152 126" fill="none" xmlns="http://www.w3.org/2000/svg">
<g clip-path="url(#clip0_6804_39693)">
<path d="M140.395 100.293C140.395 82.3701 133.275 65.1813 120.602 52.508C107.929 39.8346 90.7398 32.7148 72.8169 32.7148C54.8941 32.7148 37.7053 39.8346 25.032 52.508C12.3586 65.1813 5.23877 82.3701 5.23877 100.293L26.3384 100.293C26.3384 87.9661 31.2352 76.1441 39.9516 67.4276C48.668 58.7112 60.49 53.8144 72.8169 53.8144C85.1438 53.8144 96.9658 58.7112 105.682 67.4276C114.399 76.1441 119.295 87.9661 119.295 100.293L140.395 100.293Z" fill="#6A7B86" fill-opacity="0.05"/>
<path d="M140.814 100.291C141.4 100.291 141.693 100.291 141.92 100.174C142.116 100.072 142.281 99.9022 142.379 99.7034C142.491 99.4738 142.484 99.1875 142.47 98.6149C142.102 83.33 136.716 68.5882 127.143 56.6669C126.784 56.2203 126.605 55.997 126.371 55.8938C126.169 55.8045 125.933 55.7816 125.717 55.8303C125.468 55.8867 125.244 56.0755 124.796 56.4532L124.696 56.5377C124.247 56.9163 124.023 57.1056 123.925 57.3328C123.837 57.536 123.816 57.7509 123.863 57.9672C123.915 58.209 124.103 58.4439 124.479 58.9136C133.523 70.2055 138.619 84.1521 138.985 98.6149C139.001 99.2165 139.008 99.5173 139.124 99.7357C139.228 99.931 139.383 100.082 139.581 100.181C139.802 100.291 140.096 100.291 140.683 100.291L140.814 100.291Z" fill="#6A7B86" fill-opacity="0.1"/>
<path d="M114.055 46.2262C114.41 45.7603 114.588 45.5274 114.632 45.2757C114.67 45.0577 114.636 44.8233 114.536 44.6256C114.422 44.3971 114.19 44.229 113.726 43.8926C103.685 36.6089 91.8717 32.1319 79.5039 30.9393C66.5793 29.6931 53.5637 32.0833 41.9252 37.8402C30.2868 43.5972 20.4886 52.4919 13.636 63.5209C7.07861 74.0748 3.4682 86.1812 3.16402 98.5824C3.14998 99.155 3.14295 99.4413 3.25501 99.671C3.35203 99.8698 3.51745 100.039 3.71381 100.141C3.9406 100.259 4.23354 100.259 4.81943 100.26L4.9504 100.26C5.53769 100.26 5.83133 100.26 6.0526 100.15C6.25055 100.051 6.40519 99.9 6.50921 99.7047C6.62548 99.4864 6.63324 99.1856 6.64876 98.584C6.9519 86.8322 10.3803 75.3618 16.5951 65.3594C23.105 54.8818 32.4133 46.4319 43.4698 40.9628C54.5263 35.4937 66.8912 33.223 79.1695 34.4069C90.891 35.5371 102.088 39.7729 111.613 46.6634C112.101 47.0161 112.344 47.1925 112.589 47.2326C112.807 47.2684 113.02 47.2369 113.219 47.1396C113.441 47.0307 113.619 46.7973 113.975 46.3303L114.055 46.2262Z" fill="#01ACFC"/>
<mask id="mask0_6804_39693" style="mask-type:alpha" maskUnits="userSpaceOnUse" x="9" y="44" width="122" height="57">
<rect x="9.4292" y="44.2383" width="121.536" height="56.577" fill="#FFF1E0"/>
</mask>
<g mask="url(#mask0_6804_39693)">
<g filter="url(#filter0_ddd_6804_39693)">
<circle cx="72.817" cy="100.292" r="46.6237" fill="white"/>
</g>
</g>
<path d="M14.5357 12.7442C16.5421 12.7442 17.8755 11.5124 17.8755 9.93775C17.8755 8.12183 16.7707 7.51229 14.6373 7.22022C13.0627 6.99164 12.7579 6.62338 12.7579 5.88685C12.7579 5.18842 13.2912 4.69317 14.3198 4.69317C15.3611 4.69317 15.9072 5.09953 16.0723 6.05193H17.6215C17.4437 4.3122 16.2754 3.42329 14.3198 3.42329C12.4277 3.42329 11.1578 4.54078 11.1578 6.02654C11.1578 7.72817 12.1864 8.3885 14.3579 8.68058C15.831 8.92185 16.25 9.23932 16.25 10.0774C16.25 10.9156 15.5389 11.4743 14.5357 11.4743C12.9992 11.4743 12.6309 10.7124 12.5166 9.79806H10.8912C11.0182 11.5124 12.0595 12.7442 14.5357 12.7442ZM22.2917 12.7442C24.0949 12.7442 25.2505 11.6648 25.3648 10.1409H23.9552C23.8663 11.0806 23.1679 11.5632 22.3552 11.5632C21.225 11.5632 20.5139 10.8013 20.5139 9.35361V9.25202C20.5139 7.88055 21.2631 7.06783 22.3171 7.06783C23.1298 7.06783 23.7139 7.4361 23.8409 8.32501H25.3267C25.1489 6.49639 23.7647 5.83605 22.2917 5.83605C20.4377 5.83605 18.9392 7.16942 18.9392 9.27742V9.37901C18.9392 11.4997 20.3869 12.7442 22.2917 12.7442ZM29.6594 11.5505C28.4911 11.5505 27.8181 10.6997 27.8181 9.34091V9.23932C27.8181 7.86786 28.5165 7.04244 29.6594 7.04244C30.8023 7.04244 31.4881 7.88055 31.4881 9.25202V9.34091C31.4881 10.6997 30.8023 11.5505 29.6594 11.5505ZM29.6467 12.7442C31.6023 12.7442 33.0627 11.3981 33.0627 9.32821V9.22662C33.0627 7.19482 31.6023 5.83605 29.6594 5.83605C27.7038 5.83605 26.2435 7.20752 26.2435 9.26472V9.36631C26.2435 11.3854 27.6911 12.7442 29.6467 12.7442ZM34.451 12.6172H35.9876V9.16313C35.9876 7.75357 36.8003 7.32181 38.1464 7.30911V5.87415C37.0289 5.88685 36.4066 6.3821 35.9876 7.22022V5.97574H34.451V12.6172ZM42.295 12.7442C43.9966 12.7442 45.1268 11.9823 45.3427 10.5854H43.8569C43.7426 11.233 43.2601 11.6013 42.3331 11.6013C41.1902 11.6013 40.5553 10.8902 40.5045 9.63298H45.3681V9.18852C45.3681 6.81386 43.8823 5.83605 42.2315 5.83605C40.3394 5.83605 38.9298 7.20752 38.9298 9.26472V9.36631C38.9298 11.4616 40.3394 12.7442 42.295 12.7442ZM40.5299 8.60438C40.6822 7.57578 41.3045 6.95355 42.2315 6.95355C43.1839 6.95355 43.768 7.46149 43.8442 8.60438H40.5299ZM49.9188 14.4966H51.0617V2.76296H49.9188V14.4966Z" fill="#6A7B86"/>
<path d="M61.8202 14.0312H69.1855V12.3645H63.9314V9.04699H67.9315V7.45965H63.9314V4.34845H68.9156V2.68174H61.8202V14.0312ZM70.1993 14.0312H72.1993L74.1835 11.0312L76.1201 14.0312H78.3582L75.3899 9.63431L78.0725 5.72944H76.0566L74.3423 8.41205L72.612 5.72944H70.3898L73.0883 9.77717L70.1993 14.0312ZM82.9061 14.19C85.1601 14.19 86.6046 12.8407 86.7475 10.9359H84.9855C84.8744 12.1106 84.0014 12.7138 82.9855 12.7138C81.5727 12.7138 80.6838 11.7613 80.6838 9.95178V9.82479C80.6838 8.11046 81.6203 7.09456 82.9378 7.09456C83.9537 7.09456 84.6839 7.55489 84.8427 8.66603H86.6998C86.4776 6.38025 84.7474 5.55483 82.9061 5.55483C80.5886 5.55483 78.7155 7.22154 78.7155 9.85654V9.98352C78.7155 12.6344 80.5251 14.19 82.9061 14.19ZM92.0523 14.19C94.1793 14.19 95.5921 13.2376 95.8619 11.4915H94.0047C93.8619 12.301 93.2587 12.7614 92.0999 12.7614C90.6713 12.7614 89.8776 11.8725 89.8141 10.301H95.8937V9.74542C95.8937 6.77709 94.0365 5.55483 91.9729 5.55483C89.6078 5.55483 87.8458 7.26917 87.8458 9.84066V9.96765C87.8458 12.5868 89.6078 14.19 92.0523 14.19ZM89.8459 9.01524C90.0364 7.72949 90.8142 6.9517 91.9729 6.9517C93.1634 6.9517 93.8936 7.58663 93.9889 9.01524H89.8459ZM97.6569 14.0312H99.5775V1.88807H97.6569V14.0312ZM101.966 14.0312H103.887V1.88807H101.966V14.0312ZM109.879 14.19C112.006 14.19 113.419 13.2376 113.689 11.4915H111.831C111.688 12.301 111.085 12.7614 109.927 12.7614C108.498 12.7614 107.704 11.8725 107.641 10.301H113.72V9.74542C113.72 6.77709 111.863 5.55483 109.8 5.55483C107.434 5.55483 105.672 7.26917 105.672 9.84066V9.96765C105.672 12.5868 107.434 14.19 109.879 14.19ZM107.673 9.01524C107.863 7.72949 108.641 6.9517 109.8 6.9517C110.99 6.9517 111.72 7.58663 111.815 9.01524H107.673ZM115.436 14.0312H117.357V9.14223C117.357 7.82474 118.23 7.15805 119.309 7.15805C120.452 7.15805 120.96 7.72949 120.96 8.9835V14.0312H122.88V8.80889C122.88 6.52311 121.706 5.55483 120.039 5.55483C118.674 5.55483 117.753 6.23739 117.357 7.04694V5.72944H115.436V14.0312ZM127.919 14.1741C128.506 14.1741 128.919 14.0789 129.22 13.9678V12.4439C128.95 12.555 128.665 12.6026 128.284 12.6026C127.681 12.6026 127.331 12.2693 127.331 11.5391V7.17392H129.157V5.72944H127.331V3.904H125.411V5.72944H124.3V7.17392H125.411V11.7137C125.411 13.2852 126.268 14.1741 127.919 14.1741Z" fill="#37A444"/>
<path d="M62.3994 69.0474C63.8872 69.0474 64.9873 68.094 64.9873 66.8367C64.9873 65.4223 64.1072 64.9194 62.4413 64.6575C60.9116 64.427 60.6392 64.0498 60.6392 63.3164C60.6392 62.6144 61.1736 62.101 62.2003 62.101C63.2376 62.101 63.7824 62.4887 63.9605 63.4316H64.7777C64.6311 62.101 63.6986 61.3676 62.2003 61.3676C60.7859 61.3676 59.7906 62.2477 59.7906 63.4002C59.7906 64.7308 60.7231 65.2232 62.2946 65.4642C63.7195 65.6947 64.1072 66.0509 64.1072 66.8996C64.1072 67.7482 63.3633 68.314 62.3994 68.314C60.8907 68.314 60.5345 67.5597 60.4192 66.6691H59.5391C59.6753 67.9473 60.3983 69.0474 62.3994 69.0474ZM68.7586 69.0474C70.0787 69.0474 71.0322 68.1673 71.1474 66.9834H70.3407C70.2464 67.874 69.5444 68.3245 68.7691 68.3245C67.7109 68.3245 66.9775 67.612 66.9775 66.271V66.1871C66.9775 64.8984 67.7423 64.1022 68.7377 64.1022C69.492 64.1022 70.1206 64.427 70.2568 65.2966H71.116C70.9483 63.9031 69.8797 63.3792 68.7377 63.3792C67.2708 63.3792 66.0764 64.5108 66.0764 66.1871V66.271C66.0764 67.9683 67.2289 69.0474 68.7586 69.0474ZM74.7444 68.3245C73.6338 68.3245 72.9528 67.5073 72.9528 66.2605V66.1767C72.9528 64.9194 73.6443 64.1022 74.7444 64.1022C75.834 64.1022 76.536 64.9194 76.536 66.1871V66.2605C76.536 67.4968 75.8445 68.3245 74.7444 68.3245ZM74.7339 69.0474C76.295 69.0474 77.437 67.9054 77.437 66.25V66.1662C77.437 64.5213 76.295 63.3792 74.7444 63.3792C73.1937 63.3792 72.0517 64.5317 72.0517 66.1767V66.2605C72.0517 67.8635 73.1728 69.0474 74.7339 69.0474ZM78.7835 68.9531H79.6531V65.9462C79.6531 64.5946 80.3551 64.2488 81.4552 64.1965V63.3792C80.4704 63.4107 79.9989 63.8402 79.6531 64.4584V63.4735H78.7835V68.9531ZM84.8114 69.0474C86.0477 69.0474 86.9592 68.4712 87.1478 67.3711H86.2782C86.1629 68.0102 85.6705 68.3245 84.8218 68.3245C83.7008 68.3245 83.1036 67.633 83.0617 66.3862H87.1897V66.1033C87.1897 64.1441 85.9953 63.3792 84.7275 63.3792C83.2188 63.3792 82.1606 64.5317 82.1606 66.1871V66.271C82.1606 67.9578 83.2607 69.0474 84.8114 69.0474ZM83.0931 65.6842C83.2398 64.7098 83.837 64.1022 84.7275 64.1022C85.6286 64.1022 86.2153 64.5527 86.2991 65.6842H83.0931Z" fill="black" fill-opacity="0.4"/>
<path d="M59.088 91.9531H63.3837V76.9707H59.6748L56.2382 79.3804V82.9637L59.088 81.2035V91.9531ZM65.1689 91.9531H77.2177V88.7471H72.1887L74.2841 86.7145C75.9605 85.101 77.113 83.5504 77.113 81.4968C77.113 78.7309 75.1642 76.7611 71.4972 76.7611C67.8721 76.7611 65.609 78.668 65.4623 82.4188H69.3598C69.5484 80.6377 70.219 79.9881 71.2876 79.9881C72.3563 79.9881 72.8802 80.6587 72.8802 81.6645C72.8802 82.9217 71.8953 84.2 70.4075 85.7925L65.1689 91.3454V91.9531ZM84.3262 92.2046C88.119 92.2046 90.403 90.1091 90.403 86.9241C90.403 83.6761 88.6009 81.8321 85.8559 81.8321C83.9909 81.8321 82.9223 82.6074 82.3565 83.4247L82.4403 80.1139H89.4391V76.9707H79.3391L79.0247 85.7925H81.5812C82.0841 85.2058 82.8385 84.7238 84.0538 84.7238C85.353 84.7238 86.0864 85.5201 86.0864 86.8612C86.0864 88.0556 85.5206 88.9776 84.2843 88.9776C82.9013 88.9776 82.4822 88.2861 82.3355 87.2384H78.438C78.5428 90.0463 80.3449 92.2046 84.3262 92.2046Z" fill="black"/>
<path d="M4.22715 113.002C3.10609 113.002 2.4565 112.143 2.4565 110.446V110.068C2.4565 108.402 3.07465 107.501 4.2062 107.501C5.32726 107.501 5.93494 108.465 5.93494 110.058V110.425C5.93494 112.122 5.37965 113.002 4.22715 113.002ZM4.19572 114.113C6.15496 114.113 7.32841 112.677 7.32841 110.425V110.047C7.32841 107.795 6.0921 106.412 4.19572 106.412C2.30982 106.412 1.05255 107.805 1.05255 110.079V110.456C1.05255 112.709 2.28886 114.113 4.19572 114.113Z" fill="black" fill-opacity="0.4"/>
<path d="M131.25 114.008H136.667V112.929H133.482L135.147 111.305C136.038 110.446 136.614 109.597 136.614 108.623C136.614 107.302 135.692 106.412 134.142 106.412C132.56 106.412 131.575 107.355 131.48 108.989H132.759C132.884 107.931 133.356 107.501 134.1 107.501C134.823 107.501 135.221 107.941 135.221 108.643C135.221 109.356 134.791 110.016 134.079 110.77L131.25 113.756V114.008ZM140.808 113.002C139.687 113.002 139.037 112.143 139.037 110.446V110.068C139.037 108.402 139.655 107.501 140.787 107.501C141.908 107.501 142.515 108.465 142.515 110.058V110.425C142.515 112.122 141.96 113.002 140.808 113.002ZM140.776 114.113C142.735 114.113 143.909 112.677 143.909 110.425V110.047C143.909 107.795 142.673 106.412 140.776 106.412C138.89 106.412 137.633 107.805 137.633 110.079V110.456C137.633 112.709 138.869 114.113 140.776 114.113ZM148.154 113.002C147.033 113.002 146.383 112.143 146.383 110.446V110.068C146.383 108.402 147.002 107.501 148.133 107.501C149.254 107.501 149.862 108.465 149.862 110.058V110.425C149.862 112.122 149.307 113.002 148.154 113.002ZM148.123 114.113C150.082 114.113 151.255 112.677 151.255 110.425V110.047C151.255 107.795 150.019 106.412 148.123 106.412C146.237 106.412 144.979 107.805 144.979 110.079V110.456C144.979 112.709 146.216 114.113 148.123 114.113Z" fill="black" fill-opacity="0.4"/>
<rect x="117.544" y="44.3984" width="12.5727" height="6.28634" rx="3.14317" transform="rotate(45 117.544 44.3984)" fill="#FFA935"/>
</g>
<defs>
<filter id="filter0_ddd_6804_39693" x="5.23889" y="43.1907" width="135.156" height="135.155" filterUnits="userSpaceOnUse" color-interpolation-filters="sRGB">
<feFlood flood-opacity="0" result="BackgroundImageFix"/>
<feColorMatrix in="SourceAlpha" type="matrix" values="0 0 0 0 0 0 0 0 0 0 0 0 0 0 0 0 0 0 127 0" result="hardAlpha"/>
<feOffset/>
<feGaussianBlur stdDeviation="0.523862"/>
<feColorMatrix type="matrix" values="0 0 0 0 0 0 0 0 0 0 0 0 0 0 0 0 0 0 0.04 0"/>
<feBlend mode="normal" in2="BackgroundImageFix" result="effect1_dropShadow_6804_39693"/>
<feColorMatrix in="SourceAlpha" type="matrix" values="0 0 0 0 0 0 0 0 0 0 0 0 0 0 0 0 0 0 127 0" result="hardAlpha"/>
<feOffset dy="2.09545"/>
<feGaussianBlur stdDeviation="3.14317"/>
<feColorMatrix type="matrix" values="0 0 0 0 0 0 0 0 0 0 0 0 0 0 0 0 0 0 0.04 0"/>
<feBlend mode="normal" in2="effect1_dropShadow_6804_39693" result="effect2_dropShadow_6804_39693"/>
<feColorMatrix in="SourceAlpha" type="matrix" values="0 0 0 0 0 0 0 0 0 0 0 0 0 0 0 0 0 0 127 0" result="hardAlpha"/>
<feOffset dy="10.4772"/>
<feGaussianBlur stdDeviation="10.4772"/>
<feColorMatrix type="matrix" values="0 0 0 0 0 0 0 0 0 0 0 0 0 0 0 0 0 0 0.04 0"/>
<feBlend mode="normal" in2="effect2_dropShadow_6804_39693" result="effect3_dropShadow_6804_39693"/>
<feBlend mode="normal" in="SourceGraphic" in2="effect3_dropShadow_6804_39693" result="shape"/>
</filter>
<clipPath id="clip0_6804_39693">
<rect width="152" height="125.297" fill="white" transform="translate(0 0.03125)"/>
</clipPath>
</defs>
</svg>
