<svg width="38" height="37" viewBox="0 0 38 37" fill="none" xmlns="http://www.w3.org/2000/svg">
<path d="M28.2915 11.666C28.2915 9.14646 27.317 6.7301 25.5822 4.9485C23.8475 3.16691 21.4948 2.16602 19.0415 2.16602C16.5883 2.16602 14.2355 3.16691 12.5008 4.9485C10.7661 6.7301 9.7915 9.14646 9.7915 11.666C9.7915 22.7493 5.1665 25.916 5.1665 25.916H32.9165C32.9165 25.916 28.2915 22.7493 28.2915 11.666Z" stroke="#09273C" stroke-width="4" stroke-linecap="round" stroke-linejoin="round"/>
<path d="M21.7087 32.916C21.4376 33.3959 21.0486 33.7942 20.5805 34.0711C20.1125 34.348 19.5818 34.4937 19.0416 34.4937C18.5014 34.4937 17.9707 34.348 17.5027 34.0711C17.0346 33.7942 16.6456 33.3959 16.3745 32.916" stroke="#09273C" stroke-width="4" stroke-linecap="round" stroke-linejoin="round"/>
<path d="M2.0835 11.666C2.0835 8.18268 3.16266 4.85768 5.16683 2.16602" stroke="#F7941D" stroke-width="4" stroke-linecap="round" stroke-linejoin="round"/>
<path d="M35.9998 11.666C35.9998 8.24015 34.9179 4.9067 32.9165 2.16602" stroke="#F7941D" stroke-width="4" stroke-linecap="round" stroke-linejoin="round"/>
</svg>
