<svg width="32" height="32" viewBox="0 0 32 32" fill="none" xmlns="http://www.w3.org/2000/svg">
<path d="M5.33317 5.33268H9.33317L11.9998 2.66602H19.9998L22.6665 5.33268H26.6665C27.3737 5.33268 28.052 5.61363 28.5521 6.11373C29.0522 6.61383 29.3332 7.2921 29.3332 7.99935V23.9993C29.3332 24.7066 29.0522 25.3849 28.5521 25.885C28.052 26.3851 27.3737 26.666 26.6665 26.666H5.33317C4.62593 26.666 3.94765 26.3851 3.44755 25.885C2.94746 25.3849 2.6665 24.7066 2.6665 23.9993V7.99935C2.6665 7.2921 2.94746 6.61383 3.44755 6.11373C3.94765 5.61363 4.62593 5.33268 5.33317 5.33268ZM15.9998 9.33268C14.2317 9.33268 12.536 10.0351 11.2858 11.2853C10.0355 12.5355 9.33317 14.2312 9.33317 15.9993C9.33317 17.7675 10.0355 19.4632 11.2858 20.7134C12.536 21.9636 14.2317 22.666 15.9998 22.666C17.7679 22.666 19.4636 21.9636 20.7139 20.7134C21.9641 19.4632 22.6665 17.7675 22.6665 15.9993C22.6665 14.2312 21.9641 12.5355 20.7139 11.2853C19.4636 10.0351 17.7679 9.33268 15.9998 9.33268ZM15.9998 11.9993C17.0607 11.9993 18.0781 12.4208 18.8283 13.1709C19.5784 13.9211 19.9998 14.9385 19.9998 15.9993C19.9998 17.0602 19.5784 18.0776 18.8283 18.8278C18.0781 19.5779 17.0607 19.9993 15.9998 19.9993C14.939 19.9993 13.9216 19.5779 13.1714 18.8278C12.4213 18.0776 11.9998 17.0602 11.9998 15.9993C11.9998 14.9385 12.4213 13.9211 13.1714 13.1709C13.9216 12.4208 14.939 11.9993 15.9998 11.9993Z" fill="white"/>
</svg>
