<svg width="14" height="11" viewBox="0 0 14 11" fill="none" xmlns="http://www.w3.org/2000/svg">
<path d="M6.4522 10.0467C6.51336 10.1355 6.5952 10.2081 6.69066 10.2583C6.78613 10.3085 6.89236 10.3347 7.0002 10.3347C7.10805 10.3347 7.21428 10.3085 7.30974 10.2583C7.40521 10.2081 7.48704 10.1355 7.5482 10.0467L13.5482 1.37999C13.6177 1.28002 13.6584 1.16294 13.666 1.04146C13.6735 0.919971 13.6477 0.798733 13.5912 0.690914C13.5347 0.583094 13.4498 0.492817 13.3456 0.42989C13.2414 0.366963 13.1219 0.333793 13.0002 0.333985H1.0002C0.878764 0.334487 0.759761 0.368083 0.655989 0.431161C0.552217 0.494238 0.467604 0.58441 0.411248 0.691981C0.354892 0.799551 0.328925 0.920449 0.336141 1.04167C0.343357 1.1629 0.383483 1.27986 0.452202 1.37999L6.4522 10.0467Z" fill="#09273C"/>
</svg>
