<svg width="24" height="24" viewBox="0 0 24 24" fill="none" xmlns="http://www.w3.org/2000/svg">
<path d="M10.6667 18.6667C10.6667 19.0203 10.8071 19.3594 11.0572 19.6095C11.3072 19.8595 11.6464 20 12 20C12.3536 20 12.6928 19.8595 12.9428 19.6095C13.1929 19.3594 13.3333 19.0203 13.3333 18.6667C13.3333 18.313 13.1929 17.9739 12.9428 17.7239C12.6928 17.4738 12.3536 17.3333 12 17.3333C11.6464 17.3333 11.3072 17.4738 11.0572 17.7239C10.8071 17.9739 10.6667 18.313 10.6667 18.6667ZM10.6667 0V5.33333H13.3333V2.77333C17.8533 3.42667 21.3333 7.29333 21.3333 12C21.3333 14.4754 20.35 16.8493 18.5997 18.5997C16.8493 20.35 14.4754 21.3333 12 21.3333C9.52465 21.3333 7.15068 20.35 5.40034 18.5997C3.65 16.8493 2.66667 14.4754 2.66667 12C2.66667 9.76 3.45333 7.70667 4.77333 6.10667L12 13.3333L13.88 11.4533L4.81333 2.38667V2.41333C1.89333 4.6 0 8.06667 0 12C0 15.1826 1.26428 18.2348 3.51472 20.4853C5.76516 22.7357 8.8174 24 12 24C15.1826 24 18.2348 22.7357 20.4853 20.4853C22.7357 18.2348 24 15.1826 24 12C24 8.8174 22.7357 5.76515 20.4853 3.51472C18.2348 1.26428 15.1826 0 12 0H10.6667ZM20 12C20 11.6464 19.8595 11.3072 19.6095 11.0572C19.3594 10.8071 19.0203 10.6667 18.6667 10.6667C18.313 10.6667 17.9739 10.8071 17.7239 11.0572C17.4738 11.3072 17.3333 11.6464 17.3333 12C17.3333 12.3536 17.4738 12.6928 17.7239 12.9428C17.9739 13.1929 18.313 13.3333 18.6667 13.3333C19.0203 13.3333 19.3594 13.1929 19.6095 12.9428C19.8595 12.6928 20 12.3536 20 12ZM4 12C4 12.3536 4.14048 12.6928 4.39053 12.9428C4.64057 13.1929 4.97971 13.3333 5.33333 13.3333C5.68696 13.3333 6.0261 13.1929 6.27614 12.9428C6.52619 12.6928 6.66667 12.3536 6.66667 12C6.66667 11.6464 6.52619 11.3072 6.27614 11.0572C6.0261 10.8071 5.68696 10.6667 5.33333 10.6667C4.97971 10.6667 4.64057 10.8071 4.39053 11.0572C4.14048 11.3072 4 11.6464 4 12Z" fill="#F7941D"/>
</svg>
