<svg width="23" height="23" viewBox="0 0 23 23" fill="none" xmlns="http://www.w3.org/2000/svg">
<path d="M11.6927 15.4276C12.1916 15.4276 12.6701 15.6258 13.0229 15.9786C13.3756 16.3313 13.5738 16.8098 13.5738 17.3087C13.5738 17.8077 13.3756 18.2861 13.0229 18.6389C12.6701 18.9917 12.1916 19.1899 11.6927 19.1899C11.1938 19.1899 10.7153 18.9917 10.3625 18.6389C10.0097 18.2861 9.81152 17.8077 9.81152 17.3087C9.81152 16.8098 10.0097 16.3313 10.3625 15.9786C10.7153 15.6258 11.1938 15.4276 11.6927 15.4276ZM11.6927 9.7841C12.1916 9.7841 12.6701 9.9823 13.0229 10.3351C13.3756 10.6879 13.5738 11.1663 13.5738 11.6653C13.5738 12.1642 13.3756 12.6427 13.0229 12.9954C12.6701 13.3482 12.1916 13.5464 11.6927 13.5464C11.1938 13.5464 10.7153 13.3482 10.3625 12.9954C10.0097 12.6427 9.81152 12.1642 9.81152 11.6653C9.81152 11.1663 10.0097 10.6879 10.3625 10.3351C10.7153 9.9823 11.1938 9.7841 11.6927 9.7841ZM11.6927 4.14062C12.1916 4.14063 12.6701 4.33882 13.0229 4.6916C13.3756 5.04439 13.5738 5.52287 13.5738 6.02178C13.5738 6.5207 13.3756 6.99918 13.0229 7.35197C12.6701 7.70475 12.1916 7.90294 11.6927 7.90294C11.1938 7.90294 10.7153 7.70475 10.3625 7.35197C10.0097 6.99918 9.81152 6.5207 9.81152 6.02178C9.81152 5.52287 10.0097 5.04439 10.3625 4.6916C10.7153 4.33882 11.1938 4.14063 11.6927 4.14062Z" fill="white"/>
</svg>
