<svg width="24" height="24" viewBox="0 0 24 24" fill="none" xmlns="http://www.w3.org/2000/svg">
<path d="M6.71251 12.7025C7.10343 12.3143 7.73506 12.3151 8.12461 12.7046L11.2937 15.8737C11.6839 16.2639 12.3165 16.2642 12.7071 15.8744L15.8846 12.7038C16.2743 12.315 16.9053 12.3153 17.2946 12.7046C17.6842 13.0942 17.6842 13.7258 17.2946 14.1154L12.7071 18.7029C12.3166 19.0934 11.6834 19.0934 11.2929 18.7029L6.70961 14.1196C6.31811 13.7281 6.31963 13.0926 6.71251 12.7025Z" fill="white" fill-opacity="0.9"/>
<path d="M6.71251 5.70251C7.10343 5.31434 7.73506 5.31506 8.12461 5.70461L11.2937 8.87366C11.6839 9.26389 12.3165 9.26423 12.7071 8.87443L15.8846 5.70385C16.2743 5.315 16.9053 5.31534 17.2946 5.70462C17.6842 6.09419 17.6842 6.72581 17.2946 7.11538L12.7071 11.7029C12.3166 12.0934 11.6834 12.0934 11.2929 11.7029L6.70961 7.11961C6.31811 6.72811 6.31963 6.09262 6.71251 5.70251Z" fill="white" fill-opacity="0.6"/>
</svg>
