<svg width="16" height="16" viewBox="0 0 16 16" fill="none" xmlns="http://www.w3.org/2000/svg">
<path d="M8.58963 1.68833C8.35896 1.25233 7.64163 1.25233 7.41096 1.68833L1.41096 13.0217C1.35695 13.1232 1.33018 13.2371 1.33324 13.3521C1.33631 13.4671 1.36912 13.5793 1.42847 13.6779C1.48782 13.7765 1.57168 13.858 1.6719 13.9145C1.77211 13.971 1.88525 14.0006 2.0003 14.0003H14.0003C14.1153 14.0006 14.2283 13.971 14.3285 13.9145C14.4286 13.8581 14.5124 13.7766 14.5717 13.6781C14.631 13.5796 14.6638 13.4674 14.6668 13.3525C14.6698 13.2376 14.643 13.1238 14.589 13.0223L8.58963 1.68833ZM8.66696 12.0003H7.33363V10.667H8.66696V12.0003ZM7.33363 9.33366V6.00033H8.66696L8.66763 9.33366H7.33363Z" fill="#F94232"/>
</svg>
