<svg width="60" height="60" viewBox="0 0 60 60" fill="none" xmlns="http://www.w3.org/2000/svg">
<path d="M30 26.25H32.5V33.75H30V26.25ZM17.5 28.75H20V26.25H17.5V28.75ZM50 15V45C50 46.3261 49.4732 47.5978 48.5355 48.5355C47.5978 49.4732 46.3261 50 45 50H15C13.6739 50 12.4021 49.4732 11.4645 48.5355C10.5268 47.5978 10 46.3261 10 45V15C10 13.6739 10.5268 12.4021 11.4645 11.4645C12.4021 10.5268 13.6739 10 15 10H45C46.3261 10 47.5978 10.5268 48.5355 11.4645C49.4732 12.4021 50 13.6739 50 15ZM23.75 26.25C23.75 25.2554 23.3549 24.3016 22.6516 23.5983C21.9484 22.8951 20.9946 22.5 20 22.5H13.75V37.5H17.5V32.5H20C20.9946 32.5 21.9484 32.1049 22.6516 31.4016C23.3549 30.6984 23.75 29.7446 23.75 28.75V26.25ZM36.25 26.25C36.25 25.2554 35.8549 24.3016 35.1516 23.5983C34.4484 22.8951 33.4946 22.5 32.5 22.5H26.25V37.5H32.5C33.4946 37.5 34.4484 37.1049 35.1516 36.4016C35.8549 35.6984 36.25 34.7446 36.25 33.75V26.25ZM46.25 22.5H38.75V37.5H42.5V32.5H46.25V28.75H42.5V26.25H46.25V22.5Z" fill="#6A7B86" fill-opacity="0.2"/>
</svg>
