<svg width="24" height="24" viewBox="0 0 24 24" fill="none" xmlns="http://www.w3.org/2000/svg">
<path fill-rule="evenodd" clip-rule="evenodd" d="M7.4285 4.57031C7.73161 4.57031 8.0223 4.69072 8.23663 4.90505C8.45095 5.11938 8.57136 5.41007 8.57136 5.71317V7.99888C8.57136 8.30199 8.45095 8.59268 8.23663 8.80701C8.0223 9.02133 7.73161 9.14174 7.4285 9.14174C7.1254 9.14174 6.83471 9.02133 6.62038 8.80701C6.40605 8.59268 6.28564 8.30199 6.28564 7.99888V5.71317C6.28564 5.41007 6.40605 5.11938 6.62038 4.90505C6.83471 4.69072 7.1254 4.57031 7.4285 4.57031V4.57031Z" stroke="#3B9ADA" stroke-linecap="round" stroke-linejoin="round"/>
<path d="M21.1427 6.85547H8.57129" stroke="#3B9ADA" stroke-linecap="round" stroke-linejoin="round"/>
<path d="M6.2855 6.85547H2.85693" stroke="#3B9ADA" stroke-linecap="round" stroke-linejoin="round"/>
<path fill-rule="evenodd" clip-rule="evenodd" d="M7.4285 16C7.73161 16 8.0223 16.1204 8.23663 16.3347C8.45095 16.5491 8.57136 16.8398 8.57136 17.1429V19.4286C8.57136 19.7317 8.45095 20.0224 8.23663 20.2367C8.0223 20.451 7.73161 20.5714 7.4285 20.5714C7.1254 20.5714 6.83471 20.451 6.62038 20.2367C6.40605 20.0224 6.28564 19.7317 6.28564 19.4286V17.1429C6.28564 16.8398 6.40605 16.5491 6.62038 16.3347C6.83471 16.1204 7.1254 16 7.4285 16Z" stroke="#3B9ADA" stroke-linecap="round" stroke-linejoin="round"/>
<path d="M21.1427 18.2852H8.57129" stroke="#3B9ADA" stroke-linecap="round" stroke-linejoin="round"/>
<path d="M6.2855 18.2852H2.85693" stroke="#3B9ADA" stroke-linecap="round" stroke-linejoin="round"/>
<path fill-rule="evenodd" clip-rule="evenodd" d="M16.5711 10.2852C16.8742 10.2852 17.1649 10.4056 17.3792 10.6199C17.5935 10.8342 17.7139 11.1249 17.7139 11.428V13.7137C17.7139 14.0168 17.5935 14.3075 17.3792 14.5219C17.1649 14.7362 16.8742 14.8566 16.5711 14.8566C16.268 14.8566 15.9773 14.7362 15.763 14.5219C15.5486 14.3075 15.4282 14.0168 15.4282 13.7137V11.428C15.4282 11.1249 15.5486 10.8342 15.763 10.6199C15.9773 10.4056 16.268 10.2852 16.5711 10.2852V10.2852Z" stroke="#3B9ADA" stroke-linecap="round" stroke-linejoin="round"/>
<path d="M15.4284 12.5703H2.85693" stroke="#3B9ADA" stroke-linecap="round" stroke-linejoin="round"/>
<path d="M21.1424 12.5703H17.7139" stroke="#3B9ADA" stroke-linecap="round" stroke-linejoin="round"/>
</svg>
