<svg width="20" height="20" viewBox="0 0 20 20" fill="none" xmlns="http://www.w3.org/2000/svg">
<path d="M19.3217 7.5L17.9559 6.15234L12.4144 11.7188C12.3494 11.901 12.2583 12.0508 12.1412 12.168C11.8811 12.4284 11.5624 12.5326 11.1851 12.4805C10.8469 12.4935 10.5607 12.3828 10.3266 12.1484C10.2095 12.0443 10.125 11.9076 10.0729 11.7383L9.35098 11.0156C9.32496 11.0547 8.97049 11.4486 8.28757 12.1973C7.60464 12.946 7.23066 13.3529 7.16562 13.418C6.90545 13.6784 6.58025 13.7826 6.19001 13.7305C5.85179 13.7435 5.56561 13.6328 5.33147 13.3984C5.2144 13.2943 5.12984 13.1576 5.07781 12.9883L4.98025 12.8906L2.59976 15.2734C2.58675 15.2865 2.57049 15.2995 2.55098 15.3125C2.53147 15.3255 2.51521 15.3385 2.5022 15.3516V17.5H18.7363C19.0746 17.5 19.3672 17.6237 19.6144 17.8711C19.8616 18.1185 19.9851 18.4147 19.9851 18.7598C19.9851 19.1048 19.8616 19.3978 19.6144 19.6387C19.3672 19.8796 19.0746 20 18.7363 20H1.25342C0.9022 20 0.606265 19.8796 0.365614 19.6387C0.124964 19.3978 0.00463867 19.1016 0.00463867 18.75V1.25C0.00463867 0.911458 0.124964 0.61849 0.365614 0.371094C0.606265 0.123698 0.898948 0 1.24366 0C1.58838 0 1.88431 0.123698 2.13147 0.371094C2.37862 0.61849 2.5022 0.911458 2.5022 1.25V12.0898L3.82903 10.7617C3.88106 10.6055 3.96561 10.4688 4.08269 10.3516C4.31683 10.1172 4.60301 10.0065 4.94122 10.0195C5.31846 9.98047 5.63716 10.0846 5.89732 10.332C6.0144 10.4492 6.10545 10.6055 6.17049 10.8008L6.22903 10.8594L8.19976 8.88672C8.25179 8.73047 8.33635 8.59375 8.45342 8.47656C8.68757 8.24219 8.97375 8.13151 9.31196 8.14453C9.7022 8.10547 10.0209 8.20964 10.2681 8.45703C10.3851 8.57422 10.4762 8.73047 10.5412 8.92578L11.2242 9.60938L16.3168 4.51172L14.99 3.18359C14.977 2.71484 15.1201 2.48698 15.4193 2.5H19.3607C19.5429 2.51302 19.6892 2.57487 19.7998 2.68555C19.9103 2.79622 19.9721 2.94271 19.9851 3.125V7.07031C19.9981 7.38281 19.777 7.52604 19.3217 7.5Z" fill="#09273C"/>
</svg>
