<svg width="24" height="24" viewBox="0 0 24 24" fill="none" xmlns="http://www.w3.org/2000/svg">
<path d="M21.7102 8.70968C22.9602 7.45968 22.3902 5.99968 21.7102 5.28968L18.7102 2.28968C17.4502 1.03968 16.0002 1.60968 15.2902 2.28968L13.5902 3.99968H11.0002C9.10017 3.99968 8.00017 4.99968 7.44017 6.14968L3.00017 10.5897V14.5897L2.29017 15.2897C1.04017 16.5497 1.61017 17.9997 2.29017 18.7097L5.29017 21.7097C5.83017 22.2497 6.41017 22.4497 6.96017 22.4497C7.67017 22.4497 8.32017 22.0997 8.71017 21.7097L11.4102 18.9997H15.0002C16.7002 18.9997 17.5602 17.9397 17.8702 16.8997C19.0002 16.5997 19.6202 15.7397 19.8702 14.8997C21.4202 14.4997 22.0002 13.0297 22.0002 11.9997V8.99968H21.4102L21.7102 8.70968ZM20.0002 11.9997C20.0002 12.4497 19.8102 12.9997 19.0002 12.9997H18.0002V13.9997C18.0002 14.4497 17.8102 14.9997 17.0002 14.9997H16.0002V15.9997C16.0002 16.4497 15.8102 16.9997 15.0002 16.9997H10.5902L7.31017 20.2797C7.00017 20.5697 6.82017 20.3997 6.71017 20.2897L3.72017 17.3097C3.43017 16.9997 3.60017 16.8197 3.71017 16.7097L5.00017 15.4097V11.4097L7.00017 9.40968V10.9997C7.00017 12.2097 7.80017 13.9997 10.0002 13.9997C12.2002 13.9997 13.0002 12.2097 13.0002 10.9997H20.0002V11.9997ZM20.2902 7.28968L18.5902 8.99968H11.0002V10.9997C11.0002 11.4497 10.8102 11.9997 10.0002 11.9997C9.19017 11.9997 9.00017 11.4497 9.00017 10.9997V7.99968C9.00017 7.53968 9.17017 5.99968 11.0002 5.99968H14.4102L16.6902 3.71968C17.0002 3.42968 17.1802 3.59968 17.2902 3.70968L20.2802 6.68968C20.5702 6.99968 20.4002 7.17968 20.2902 7.28968Z" fill="#D2D7DB"/>
</svg>
