<svg width="18" height="18" viewBox="0 0 18 18" fill="none" xmlns="http://www.w3.org/2000/svg">
<path d="M8.16699 6.49935H9.83366V4.83268H8.16699V6.49935ZM9.00033 15.666C5.32533 15.666 2.33366 12.6743 2.33366 8.99935C2.33366 5.32435 5.32533 2.33268 9.00033 2.33268C12.6753 2.33268 15.667 5.32435 15.667 8.99935C15.667 12.6743 12.6753 15.666 9.00033 15.666ZM9.00033 0.666016C7.90598 0.666016 6.82234 0.881564 5.8113 1.30035C4.80025 1.71914 3.88159 2.33297 3.10777 3.10679C1.54497 4.6696 0.666992 6.78921 0.666992 8.99935C0.666992 11.2095 1.54497 13.3291 3.10777 14.8919C3.88159 15.6657 4.80025 16.2796 5.8113 16.6983C6.82234 17.1171 7.90598 17.3327 9.00033 17.3327C11.2105 17.3327 13.3301 16.4547 14.8929 14.8919C16.4557 13.3291 17.3337 11.2095 17.3337 8.99935C17.3337 7.905 17.1181 6.82137 16.6993 5.81032C16.2805 4.79927 15.6667 3.88061 14.8929 3.10679C14.1191 2.33297 13.2004 1.71914 12.1894 1.30035C11.1783 0.881564 10.0947 0.666016 9.00033 0.666016ZM8.16699 13.166H9.83366V8.16602H8.16699V13.166Z" fill="#F7941D"/>
</svg>
