<svg width="24" height="25" viewBox="0 0 24 25" fill="none" xmlns="http://www.w3.org/2000/svg">
<path d="M2 5.53172L3.28 4.26172L20 20.9817L18.73 22.2617L15.65 19.1817C14.5 19.5617 13.28 19.7617 12 19.7617C7 19.7617 2.73 16.6517 1 12.2617C1.69 10.5017 2.79 8.95172 4.19 7.72172L2 5.53172ZM12 9.26172C12.7956 9.26172 13.5587 9.57779 14.1213 10.1404C14.6839 10.703 15 11.4661 15 12.2617C15 12.6117 14.94 12.9517 14.83 13.2617L11 9.43172C11.31 9.32172 11.65 9.26172 12 9.26172ZM12 4.76172C17 4.76172 21.27 7.87172 23 12.2617C22.18 14.3417 20.79 16.1417 19 17.4517L17.58 16.0217C18.94 15.0817 20.06 13.8017 20.82 12.2617C19.17 8.90172 15.76 6.76172 12 6.76172C10.91 6.76172 9.84 6.94172 8.84 7.26172L7.3 5.73172C8.74 5.11172 10.33 4.76172 12 4.76172ZM3.18 12.2617C4.83 15.6217 8.24 17.7617 12 17.7617C12.69 17.7617 13.37 17.6917 14 17.5517L11.72 15.2617C10.29 15.1117 9.15 13.9717 9 12.5417L5.6 9.13172C4.61 9.98172 3.78 11.0417 3.18 12.2617Z" fill="#6A7B86" fill-opacity="0.5"/>
</svg>
