<svg width="14" height="14" viewBox="0 0 14 14" fill="none" xmlns="http://www.w3.org/2000/svg">
<path d="M6.99984 6.70573C6.61306 6.70573 6.24213 6.55208 5.96864 6.27859C5.69515 6.0051 5.5415 5.63417 5.5415 5.2474C5.5415 4.86062 5.69515 4.48969 5.96864 4.2162C6.24213 3.94271 6.61306 3.78906 6.99984 3.78906C7.38661 3.78906 7.75754 3.94271 8.03104 4.2162C8.30453 4.48969 8.45817 4.86062 8.45817 5.2474C8.45817 5.43891 8.42045 5.62854 8.34716 5.80548C8.27387 5.98241 8.16645 6.14317 8.03104 6.27859C7.89562 6.41401 7.73485 6.52143 7.55792 6.59472C7.38099 6.66801 7.19135 6.70573 6.99984 6.70573ZM6.99984 1.16406C5.91687 1.16406 4.87826 1.59427 4.11248 2.36004C3.34671 3.12582 2.9165 4.16443 2.9165 5.2474C2.9165 8.3099 6.99984 12.8307 6.99984 12.8307C6.99984 12.8307 11.0832 8.3099 11.0832 5.2474C11.0832 4.16443 10.653 3.12582 9.88719 2.36004C9.12142 1.59427 8.08281 1.16406 6.99984 1.16406Z" fill="white"/>
</svg>
