<svg width="18" height="18" viewBox="0 0 18 18" fill="none" xmlns="http://www.w3.org/2000/svg">
<path d="M12.8837 0.666016C15.717 0.666016 17.3337 2.26602 17.3337 5.10768V12.891C17.3337 15.716 15.7253 17.3327 12.892 17.3327H5.10866C2.26699 17.3327 0.666992 15.716 0.666992 12.891V5.10768C0.666992 2.26602 2.26699 0.666016 5.10866 0.666016H12.8837ZM8.99199 5.25768C8.60866 5.25768 8.30033 5.56602 8.30033 5.94935V8.29935H5.94199C5.75866 8.29935 5.58366 8.37435 5.45033 8.49935C5.32533 8.63268 5.25033 8.80685 5.25033 8.99102C5.25033 9.37435 5.55866 9.68268 5.94199 9.69102H8.30033V12.0493C8.30033 12.4327 8.60866 12.741 8.99199 12.741C9.37533 12.741 9.68366 12.4327 9.68366 12.0493V9.69102H12.0503C12.4337 9.68268 12.742 9.37435 12.742 8.99102C12.742 8.60768 12.4337 8.29935 12.0503 8.29935H9.68366V5.94935C9.68366 5.56602 9.37533 5.25768 8.99199 5.25768Z" fill="white"/>
</svg>
