<svg width="27" height="27" viewBox="0 0 27 27" fill="none" xmlns="http://www.w3.org/2000/svg">
<path d="M18.1618 2.17969C21.8682 2.17969 23.983 4.27271 23.983 7.99001V18.1717C23.983 21.8672 21.8791 23.982 18.1727 23.982H7.99098C4.27369 23.982 2.18066 21.8672 2.18066 18.1717V7.99001C2.18066 4.27271 4.27369 2.17969 7.99098 2.17969H18.1618ZM13.0709 8.18623C12.5695 8.18623 12.1661 8.58957 12.1661 9.09103V12.1652H9.0811C8.84127 12.1652 8.61235 12.2633 8.43793 12.4268C8.27441 12.6012 8.1763 12.829 8.1763 13.0699C8.1763 13.5714 8.57965 13.9747 9.0811 13.9856H12.1661V17.0707C12.1661 17.5721 12.5695 17.9755 13.0709 17.9755C13.5724 17.9755 13.9757 17.5721 13.9757 17.0707V13.9856H17.0717C17.5731 13.9747 17.9764 13.5714 17.9764 13.0699C17.9764 12.5685 17.5731 12.1652 17.0717 12.1652H13.9757V9.09103C13.9757 8.58957 13.5724 8.18623 13.0709 8.18623Z" fill="white"/>
</svg>
