<svg width="32" height="32" viewBox="0 0 32 32" fill="none" xmlns="http://www.w3.org/2000/svg">
<path d="M5.69385 24.4587C5.69385 24.4587 8.66585 20.6641 15.9992 20.6641C23.3325 20.6641 26.3058 24.4587 26.3058 24.4587" stroke="#09273C" stroke-width="2" stroke-linecap="round" stroke-linejoin="round"/>
<path d="M15.9995 2.66406C23.3635 2.66406 29.3328 8.6334 29.3328 15.9974C29.3328 23.3614 23.3635 29.3307 15.9995 29.3307" stroke="#09273C" stroke-width="2" stroke-linecap="round" stroke-linejoin="round"/>
<path d="M15.9998 29.3301C8.63576 29.3301 2.66642 23.3607 2.66642 15.9967C2.66642 8.63275 8.63576 2.66341 15.9998 2.66341" stroke="#6FCF97" stroke-width="3" stroke-linecap="round" stroke-linejoin="round"/>
<path d="M16 16C17.0609 16 18.0783 15.5786 18.8284 14.8284C19.5786 14.0783 20 13.0609 20 12C20 10.9391 19.5786 9.92172 18.8284 9.17157C18.0783 8.42143 17.0609 8 16 8C14.9391 8 13.9217 8.42143 13.1716 9.17157C12.4214 9.92172 12 10.9391 12 12C12 13.0609 12.4214 14.0783 13.1716 14.8284C13.9217 15.5786 14.9391 16 16 16V16Z" stroke="#09273C" stroke-width="2" stroke-linecap="round" stroke-linejoin="round"/>
</svg>
