<svg width="30" height="30" viewBox="0 0 30 30" fill="none" xmlns="http://www.w3.org/2000/svg">
<path d="M13.1499 13.0309L13.15 13.0308L25.1257 6.09944L18.3067 17.9125L18.3066 17.9125L18.3055 17.9148C17.6886 19.1239 16.4428 19.95 15 19.95C14.0187 19.95 13.0776 19.5602 12.3837 18.8663C11.6898 18.1724 11.3 17.2313 11.3 16.25C11.3 14.8684 12.0525 13.6597 13.1499 13.0309ZM7.88977 23.348L7.90439 23.3625H7.91655C8.37007 23.8315 8.36527 24.5765 7.90214 25.0396C7.43416 25.5076 6.66559 25.5077 6.19756 25.0519C3.94422 22.7984 2.55 19.686 2.55 16.25C2.55 12.9481 3.86169 9.78135 6.19652 7.44652C8.53135 5.11169 11.6981 3.8 15 3.8C17.2215 3.8 19.2982 4.40504 21.1108 5.40087L18.5833 6.85721C17.4951 6.43536 16.2475 6.2 15 6.2C12.3346 6.2 9.77832 7.25884 7.89358 9.14358C6.00884 11.0283 4.95 13.5846 4.95 16.25C4.95 19.0262 6.06808 21.5389 7.88977 23.348ZM27.45 16.25C27.45 19.686 26.0558 22.7983 23.8025 25.0518C23.3344 25.5077 22.5784 25.5076 22.1104 25.0396C21.6424 24.5717 21.6424 23.8158 22.1104 23.3479C23.9319 21.5264 25.05 19.0263 25.05 16.25C25.05 15.0021 24.8145 13.7542 24.3803 12.6292L25.8365 10.102C26.8448 11.9507 27.45 14.0158 27.45 16.25Z" fill="url(#paint0_linear_5719_18904)" stroke="white" stroke-width="0.1"/>
<path d="M13.0002 13.75C16.7502 11.5 24.0002 7.25 24.0002 7.25C24.0002 7.25 19.4735 15.8318 17.2502 18.5C16.0002 20 13.9964 19.739 12.7502 18.5C11.4328 17.1903 11.4073 14.7057 13.0002 13.75Z" fill="black"/>
<defs>
<linearGradient id="paint0_linear_5719_18904" x1="22.5" y1="25.5" x2="6.25" y2="25.5" gradientUnits="userSpaceOnUse">
<stop stop-color="#19C8A6"/>
<stop offset="0.495777" stop-color="#98A857"/>
<stop offset="0.864583" stop-color="#F7911C"/>
<stop offset="1" stop-color="#FE4028"/>
</linearGradient>
</defs>
</svg>
