<svg width="24" height="24" viewBox="0 0 24 24" fill="none" xmlns="http://www.w3.org/2000/svg">
<path d="M9.75227 10.8756C9.90004 10.8756 10.0464 10.8465 10.1829 10.79C10.3194 10.7334 10.4435 10.6505 10.548 10.546C10.6525 10.4415 10.7354 10.3175 10.7919 10.181C10.8485 10.0444 10.8776 9.89809 10.8776 9.75031C10.8776 9.60253 10.8485 9.4562 10.7919 9.31967C10.7354 9.18314 10.6525 9.05909 10.548 8.9546C10.4435 8.8501 10.3194 8.76721 10.1829 8.71066C10.0464 8.65411 9.90004 8.625 9.75227 8.625C9.45381 8.625 9.16759 8.74356 8.95655 8.9546C8.74551 9.16563 8.62695 9.45186 8.62695 9.75031C8.62695 10.0488 8.74551 10.335 8.95655 10.546C9.16759 10.7571 9.45381 10.8756 9.75227 10.8756Z" fill="black"/>
<path fill-rule="evenodd" clip-rule="evenodd" d="M4.13125 15.755V23.25H14.8263V19.18H17.5094C17.6769 19.18 17.8369 19.1469 17.9825 19.0875L16.495 17.93H13.5763V22H5.38063V15.2512L5.03062 14.8881C4.00562 13.8225 2 11.3319 2 8.23438C2 7.21562 2.38437 5.655 3.54125 4.36562C4.56187 3.2275 6.27437 2.2 9.12687 2.02625V6.4325C8.63365 6.52597 8.16749 6.72829 7.76236 7.02472C7.35722 7.32115 7.02332 7.70422 6.78497 8.14603C6.54662 8.58784 6.40983 9.07725 6.38456 9.57862C6.35929 10.08 6.44619 10.5807 6.63892 11.0442C6.83164 11.5077 7.12535 11.9224 7.49863 12.2581C7.87191 12.5937 8.31537 12.8419 8.79669 12.9845C9.27802 13.1271 9.78509 13.1605 10.281 13.0823C10.7768 13.0041 11.249 12.8163 11.6631 12.5325L20.4569 19.3594C20.4027 19.6718 20.4557 19.9934 20.6074 20.272C20.759 20.5505 21.0003 20.7696 21.2921 20.8937C21.584 21.0178 21.9092 21.0396 22.215 20.9556C22.5208 20.8716 22.7892 20.6867 22.9767 20.4309C23.1641 20.1752 23.2597 19.8635 23.2477 19.5466C23.2358 19.2297 23.117 18.9262 22.9108 18.6852C22.7046 18.4443 22.4231 18.2801 22.1118 18.2194C21.8006 18.1587 21.4779 18.2049 21.1963 18.3506L12.55 11.6375C12.8629 11.1738 13.0556 10.6396 13.111 10.083C13.1663 9.52639 13.0825 8.96473 12.867 8.44851C12.6515 7.9323 12.3112 7.47772 11.8765 7.12561C11.4419 6.7735 10.9266 6.5349 10.3769 6.43125V2.00437C11.9662 2.03375 13.0675 2.24688 13.9006 2.55938C14.7831 2.89063 15.4375 3.35875 16.0969 3.97L16.1856 4.0525C16.8319 4.65125 17.0244 4.83 17.1338 5.12125L19.7794 12.165H17.5094V13.97L18.7594 14.9419V13.415H19.7794C19.9814 13.4153 20.1804 13.3665 20.3595 13.273C20.5385 13.1794 20.6922 13.0438 20.8073 12.8778C20.9224 12.7118 20.9955 12.5204 21.0204 12.3199C21.0452 12.1195 21.0211 11.916 20.95 11.7269L18.3037 4.68125C18.0856 4.1 17.6638 3.7125 17.1325 3.225C17.0705 3.16807 17.0086 3.11098 16.9469 3.05375C15.4688 1.6825 13.7869 0.75 9.99875 0.75C2.62875 0.75 0.75 5.67188 0.75 8.23438C0.75 11.8387 3.05187 14.635 4.13125 15.755ZM9.75187 11.875C10.0309 11.875 10.3073 11.8201 10.5651 11.7134C10.8229 11.6066 11.0572 11.4501 11.2546 11.2528C11.4519 11.0555 11.6085 10.8213 11.7153 10.5635C11.8221 10.3057 11.8771 10.0294 11.8772 9.75031C11.8772 9.47125 11.8223 9.19492 11.7156 8.93709C11.6088 8.67925 11.4523 8.44497 11.255 8.24762C11.0577 8.05027 10.8235 7.8937 10.5657 7.78688C10.3079 7.68005 10.0316 7.62504 9.7525 7.625C9.18891 7.625 8.64841 7.84888 8.2499 8.2474C7.85138 8.64591 7.6275 9.18641 7.6275 9.75C7.6275 10.3136 7.85138 10.8541 8.2499 11.2526C8.64841 11.6511 9.18891 11.875 9.7525 11.875H9.75187Z" fill="url(#paint0_linear_5719_18899)"/>
<defs>
<linearGradient id="paint0_linear_5719_18899" x1="11.9994" y1="0.75" x2="11.9994" y2="23.25" gradientUnits="userSpaceOnUse">
<stop offset="0.317708" stop-color="#19C8A6"/>
<stop offset="0.723958" stop-color="#F7941D"/>
<stop offset="1" stop-color="#F94232"/>
</linearGradient>
</defs>
</svg>
