<svg width="30" height="30" viewBox="0 0 30 30" fill="none" xmlns="http://www.w3.org/2000/svg">
<circle cx="15" cy="15" r="8" fill="white"/>
<path d="M15.7134 2.62446L24.0102 5.40815C24.9389 5.71826 25.5669 6.57139 25.5719 7.52748L25.6248 15.8283C25.6411 18.3448 24.7238 20.7853 23.0438 22.6974C22.2711 23.5751 21.2807 24.3289 20.016 25.0031L15.5561 27.3872C15.4165 27.4607 15.2629 27.4987 15.1081 27.5C14.9534 27.5012 14.7986 27.4644 14.6601 27.3921L10.1588 25.0631C8.88021 24.4 7.88103 23.6572 7.1008 22.7918C5.39312 20.8992 4.44427 18.4698 4.42791 15.9496L4.37503 7.65496C4.37003 6.69764 4.98665 5.83839 5.91034 5.51601L14.1757 2.63304C14.6664 2.45898 15.2139 2.4553 15.7134 2.62446ZM19.681 11.5233C19.3098 11.1666 18.712 11.1691 18.3458 11.5307L14.1351 15.6811L12.4111 14.0239C12.0399 13.6672 11.4434 13.6708 11.0759 14.0324C10.7097 14.394 10.7135 14.975 11.0847 15.3317L13.4795 17.6362C13.6657 17.8151 13.9074 17.9034 14.149 17.901C14.3906 17.8997 14.631 17.809 14.8147 17.6276L19.6886 12.8226C20.0548 12.461 20.051 11.88 19.681 11.5233Z" fill="#19C8A6"/>
</svg>
