<svg width="22" height="22" viewBox="0 0 22 22" fill="none" xmlns="http://www.w3.org/2000/svg">
<path d="M18.4826 4.976L10.1896 13.2689C10.4356 13.621 10.6446 14.0012 10.8126 14.4042L12.8817 19.3865L18.4826 4.97491V4.976ZM8.7304 11.8097L17.0244 3.51566L2.61281 9.1165L7.59506 11.1867C7.99498 11.3526 8.37566 11.5615 8.7304 11.8097ZM21.3166 3.2925L14.7873 20.0907C14.3756 21.1523 13.1872 21.6972 12.1342 21.3083C11.8777 21.2135 11.6436 21.0667 11.4465 20.8771C11.2495 20.6875 11.0938 20.4592 10.9891 20.2066L8.91998 15.2243C8.51737 14.2534 7.7459 13.4819 6.77498 13.0793L1.79165 11.0102C0.758146 10.5801 0.285813 9.38516 0.738646 8.33866C0.84968 8.08296 1.01023 7.85175 1.21103 7.65839C1.41184 7.46502 1.64893 7.3133 1.90865 7.212L18.7068 0.680579C19.0718 0.533487 19.472 0.496985 19.8576 0.575614C20.2432 0.654243 20.5972 0.844532 20.8754 1.1228C21.1537 1.40106 21.344 1.75502 21.4226 2.14061C21.5012 2.52621 21.4647 2.92641 21.3176 3.29141L21.3166 3.2925Z" fill="#09273C"/>
</svg>
