<svg width="21" height="21" viewBox="0 0 21 21" fill="none" xmlns="http://www.w3.org/2000/svg">
<path d="M18.8999 11.6594C18.7396 11.4769 18.6512 11.2423 18.6512 10.9994C18.6512 10.7565 18.7396 10.5219 18.8999 10.3394L20.1799 8.89941C20.3209 8.74208 20.4085 8.54411 20.4301 8.33392C20.4516 8.12372 20.4061 7.9121 20.2999 7.72941L18.2999 4.26941C18.1948 4.08693 18.0348 3.94228 17.8426 3.85609C17.6505 3.7699 17.4361 3.74657 17.2299 3.78941L15.3499 4.16941C15.1107 4.21884 14.8616 4.179 14.6498 4.05741C14.4379 3.93582 14.2779 3.74089 14.1999 3.50941L13.5899 1.67941C13.5228 1.48079 13.395 1.30827 13.2245 1.18625C13.0541 1.06423 12.8495 0.998866 12.6399 0.999407H8.6399C8.42183 0.988025 8.20603 1.04833 8.02546 1.17112C7.84489 1.29391 7.70948 1.47243 7.6399 1.67941L7.0799 3.50941C7.0019 3.74089 6.84187 3.93582 6.63001 4.05741C6.41815 4.179 6.16911 4.21884 5.9299 4.16941L3.9999 3.78941C3.80445 3.76179 3.6052 3.79263 3.42724 3.87805C3.24929 3.96346 3.1006 4.09964 2.9999 4.26941L0.999896 7.72941C0.891056 7.91006 0.842118 8.12049 0.860079 8.33063C0.878039 8.54077 0.961979 8.73985 1.0999 8.89941L2.3699 10.3394C2.53022 10.5219 2.61863 10.7565 2.61863 10.9994C2.61863 11.2423 2.53022 11.4769 2.3699 11.6594L1.0999 13.0994C0.961979 13.259 0.878039 13.458 0.860079 13.6682C0.842118 13.8783 0.891056 14.0888 0.999896 14.2694L2.9999 17.7294C3.10499 17.9119 3.26502 18.0565 3.45715 18.1427C3.64928 18.2289 3.86372 18.2523 4.0699 18.2094L5.9499 17.8294C6.18911 17.78 6.43815 17.8198 6.65001 17.9414C6.86187 18.063 7.0219 18.2579 7.0999 18.4894L7.7099 20.3194C7.77948 20.5264 7.91489 20.7049 8.09546 20.8277C8.27603 20.9505 8.49183 21.0108 8.7099 20.9994H12.7099C12.9195 21 13.1241 20.9346 13.2945 20.8126C13.465 20.6905 13.5928 20.518 13.6599 20.3194L14.2699 18.4894C14.3479 18.2579 14.5079 18.063 14.7198 17.9414C14.9316 17.8198 15.1807 17.78 15.4199 17.8294L17.2999 18.2094C17.5061 18.2523 17.7205 18.2289 17.9126 18.1427C18.1048 18.0565 18.2648 17.9119 18.3699 17.7294L20.3699 14.2694C20.4761 14.0867 20.5216 13.8751 20.5001 13.6649C20.4785 13.4547 20.3909 13.2567 20.2499 13.0994L18.8999 11.6594ZM17.4099 12.9994L18.2099 13.8994L16.9299 16.1194L15.7499 15.8794C15.0297 15.7322 14.2805 15.8545 13.6445 16.2232C13.0085 16.5919 12.53 17.1813 12.2999 17.8794L11.9199 18.9994H9.3599L8.9999 17.8594C8.76975 17.1613 8.29128 16.5719 7.6553 16.2032C7.01933 15.8345 6.27012 15.7122 5.5499 15.8594L4.3699 16.0994L3.0699 13.8894L3.8699 12.9894C4.36185 12.4394 4.63383 11.7273 4.63383 10.9894C4.63383 10.2515 4.36185 9.53943 3.8699 8.98941L3.0699 8.08941L4.3499 5.88941L5.5299 6.12941C6.25012 6.27663 6.99932 6.15429 7.6353 5.78561C8.27128 5.41692 8.74975 4.82757 8.9799 4.12941L9.3599 2.99941H11.9199L12.2999 4.13941C12.53 4.83757 13.0085 5.42692 13.6445 5.79561C14.2805 6.16429 15.0297 6.28663 15.7499 6.13941L16.9299 5.89941L18.2099 8.11941L17.4099 9.01941C16.9235 9.56817 16.6549 10.2761 16.6549 11.0094C16.6549 11.7427 16.9235 12.4507 17.4099 12.9994ZM10.6399 6.99941C9.84877 6.99941 9.07541 7.234 8.41762 7.67353C7.75982 8.11306 7.24713 8.73777 6.94438 9.46867C6.64163 10.1996 6.56241 11.0038 6.71676 11.7798C6.8711 12.5557 7.25206 13.2684 7.81147 13.8278C8.37088 14.3872 9.08361 14.7682 9.85954 14.9226C10.6355 15.0769 11.4397 14.9977 12.1706 14.6949C12.9015 14.3922 13.5263 13.8795 13.9658 13.2217C14.4053 12.5639 14.6399 11.7905 14.6399 10.9994C14.6399 9.93854 14.2185 8.92113 13.4683 8.17098C12.7182 7.42084 11.7008 6.99941 10.6399 6.99941ZM10.6399 12.9994C10.2443 12.9994 9.85765 12.8821 9.52876 12.6623C9.19986 12.4426 8.94351 12.1302 8.79214 11.7648C8.64076 11.3993 8.60116 10.9972 8.67833 10.6092C8.7555 10.2213 8.94598 9.8649 9.22568 9.5852C9.50539 9.30549 9.86175 9.11501 10.2497 9.03784C10.6377 8.96067 11.0398 9.00027 11.4053 9.15165C11.7707 9.30303 12.0831 9.55937 12.3028 9.88827C12.5226 10.2172 12.6399 10.6038 12.6399 10.9994C12.6399 11.5298 12.4292 12.0385 12.0541 12.4136C11.679 12.7887 11.1703 12.9994 10.6399 12.9994Z" fill="#09273C"/>
</svg>
