<svg width="30" height="30" viewBox="0 0 30 30" fill="none" xmlns="http://www.w3.org/2000/svg">
<ellipse rx="6.5" ry="7" transform="matrix(-1 0 0 1 15.5 15)" fill="#FFC501"/>
<path d="M15.8214 2.53374L15.5913 2.6313L15.8214 2.53374L19.066 10.189L27.3678 10.8933C27.6761 10.9194 27.8013 11.3035 27.5676 11.5064L21.2746 16.968L23.1568 25.0855C23.2267 25.3869 22.8999 25.6241 22.635 25.4642L15.4992 21.1573L8.36377 25.464C8.09872 25.6239 7.77172 25.3863 7.84207 25.0848L9.73561 16.968L3.4313 11.5065C3.19729 11.3038 3.32239 10.9194 3.63088 10.8933L11.9324 10.189L15.1769 2.53374L15.4071 2.6313L15.1769 2.53374C15.2975 2.24918 15.7008 2.24918 15.8214 2.53374ZM8.1054 25.0359L8.10569 25.0357L8.1054 25.0359ZM3.75869 11.1286L3.75905 11.1289L3.75869 11.1286ZM17.6045 12.492L17.6256 12.2429L17.6045 12.492C17.4751 12.4811 17.3623 12.3993 17.3117 12.2797L15.4992 7.99752L13.6867 12.2797C13.636 12.3993 13.5233 12.4811 13.3938 12.492L13.3728 12.2429L13.3938 12.492L8.75166 12.8842L12.2705 15.9366C12.3684 16.0215 12.4113 16.1536 12.3821 16.2799L11.3326 20.8171L15.3183 18.4108L15.4475 18.6248L15.3183 18.4108C15.4295 18.3437 15.5688 18.3437 15.6801 18.4108L15.5509 18.6248L15.6801 18.4108L19.6658 20.8171L18.6163 16.2799C18.5871 16.1536 18.63 16.0215 18.7279 15.9366L22.2467 12.8842L17.6045 12.492Z" fill="#FFC501" stroke="#FFC501" stroke-width="0.5"/>
</svg>
