<svg width="14" height="14" viewBox="0 0 14 14" fill="none" xmlns="http://www.w3.org/2000/svg">
<path d="M12.8332 4.95573C12.8332 5.7549 12.1798 6.41406 11.3748 6.41406C10.5698 6.41406 9.9165 5.7549 9.9165 4.95573C9.9165 5.7549 9.26317 6.41406 8.45817 6.41406C7.65317 6.41406 6.99984 5.7549 6.99984 4.95573C6.99984 5.7549 6.3465 6.41406 5.5415 6.41406C4.7365 6.41406 4.08317 5.7549 4.08317 4.95573C4.08317 5.7549 3.42984 6.41406 2.62484 6.41406C1.81984 6.41406 1.1665 5.7549 1.1665 4.95573L1.97734 1.79406C1.97734 1.79406 2.1465 1.16406 2.7415 1.16406H11.2582C11.8532 1.16406 12.0223 1.79406 12.0223 1.79406L12.8332 4.95573ZM12.2498 7.11406V11.6641C12.2498 12.3057 11.7248 12.8307 11.0832 12.8307H2.9165C2.27484 12.8307 1.74984 12.3057 1.74984 11.6641V7.11406C2.01817 7.2249 2.31567 7.28906 2.62484 7.28906C3.179 7.28906 3.6865 7.09656 4.08317 6.77573C4.48567 7.09656 4.99317 7.28906 5.5415 7.28906C6.09567 7.28906 6.60317 7.09656 6.99984 6.77573C7.40234 7.09656 7.90984 7.28906 8.45817 7.28906C9.01234 7.28906 9.51984 7.09656 9.9165 6.77573C10.3132 7.09656 10.8265 7.28906 11.3748 7.28906C11.684 7.28906 11.9815 7.2249 12.2498 7.11406ZM11.0832 10.1066C11.0832 9.9899 11.0832 9.8674 11.054 9.73906L11.0365 9.64573H9.304V10.3282H10.3598C10.3248 10.4566 10.2782 10.5849 10.179 10.6899C9.9865 10.8824 9.724 10.9874 9.44401 10.9874C9.15234 10.9874 8.8665 10.8649 8.6565 10.6607C8.254 10.2466 8.254 9.57573 8.66817 9.15573C9.07067 8.7474 9.73567 8.7474 10.1557 9.13823L10.2373 9.21406L10.7273 8.71823L10.634 8.63656C10.3073 8.33323 9.87567 8.16406 9.42067 8.16406H9.41484C8.94234 8.16406 8.499 8.3449 8.1665 8.67156C7.82234 9.0099 7.62984 9.45323 7.62984 9.91406C7.62984 10.3807 7.81067 10.8124 8.14317 11.1332C8.4815 11.4657 8.954 11.6641 9.43817 11.6641H9.44984C9.9165 11.6641 10.3307 11.4949 10.634 11.1974C10.9082 10.9174 11.0832 10.4974 11.0832 10.1066Z" fill="white"/>
</svg>
