<svg width="30" height="20" viewBox="0 0 30 20" fill="none" xmlns="http://www.w3.org/2000/svg">
<path d="M24.1875 7.55C23.3375 3.2375 19.55 0 15 0C11.3875 0 8.25 2.05 6.6875 5.05C2.925 5.45 0 8.6375 0 12.5C0 14.4891 0.790176 16.3968 2.1967 17.8033C3.60322 19.2098 5.51088 20 7.5 20H23.75C24.5708 20 25.3835 19.8383 26.1418 19.5242C26.9001 19.2102 27.5891 18.7498 28.1694 18.1694C28.7498 17.5891 29.2102 16.9001 29.5242 16.1418C29.8383 15.3835 30 14.5708 30 13.75C30 10.45 27.4375 7.775 24.1875 7.55ZM23.75 17.5H7.5C6.17392 17.5 4.90215 16.9732 3.96447 16.0355C3.02678 15.0979 2.5 13.8261 2.5 12.5C2.5 9.9375 4.4125 7.8 6.95 7.5375L8.2875 7.4L8.9125 6.2125C10.1 3.925 12.425 2.5 15 2.5C18.275 2.5 21.1 4.825 21.7375 8.0375L22.1125 9.9125L24.025 10.05C25.975 10.175 27.5 11.8125 27.5 13.75C27.5 14.7446 27.1049 15.6984 26.4017 16.4017C25.6984 17.1049 24.7446 17.5 23.75 17.5ZM10 11.25H13.1875V15H16.8125V11.25H20L15 6.25L10 11.25Z" fill="#B4BDC3"/>
</svg>
