<svg width="21" height="20" viewBox="0 0 21 20" fill="none" xmlns="http://www.w3.org/2000/svg">
<path fill-rule="evenodd" clip-rule="evenodd" d="M14.6418 0C17.9488 0 20.6388 2.69 20.6388 5.998V13.175C20.6388 16.482 17.9488 19.173 14.6418 19.173H5.99776C2.69076 19.173 -0.000244141 16.482 -0.000244141 13.175V5.998C-0.000244141 2.69 2.69076 0 5.99776 0H14.6418ZM14.6418 1.5H5.99776C3.51776 1.5 1.49976 3.518 1.49976 5.998V13.175C1.49976 15.655 3.51776 17.673 5.99776 17.673H14.6418C17.1218 17.673 19.1388 15.655 19.1388 13.175V12.895L15.8409 12.8956C13.9439 12.8956 12.3999 11.3526 12.3989 9.4566C12.3989 7.5586 13.9429 6.0146 15.8409 6.0136L19.1388 6.013V5.998C19.1388 3.518 17.1218 1.5 14.6418 1.5ZM19.1388 7.513L15.8409 7.5136C14.7699 7.5146 13.8989 8.3856 13.8989 9.4556C13.8989 10.5246 14.7709 11.3956 15.8409 11.3956L19.1388 11.395V7.513ZM16.2985 8.6436C16.7125 8.6436 17.0485 8.9796 17.0485 9.3936C17.0485 9.8076 16.7125 10.1436 16.2985 10.1436H15.9865C15.5725 10.1436 15.2365 9.8076 15.2365 9.3936C15.2365 8.9796 15.5725 8.6436 15.9865 8.6436H16.2985ZM10.6848 4.5381C11.0988 4.5381 11.4348 4.8741 11.4348 5.2881C11.4348 5.7021 11.0988 6.0381 10.6848 6.0381H5.28576C4.87176 6.0381 4.53576 5.7021 4.53576 5.2881C4.53576 4.8741 4.87176 4.5381 5.28576 4.5381H10.6848Z" fill="black"/>
</svg>
