<svg width="24" height="24" viewBox="0 0 24 24" fill="none" xmlns="http://www.w3.org/2000/svg">
<circle cx="12" cy="12" r="7" fill="#FFC501"/>
<path d="M23 12.46L20.56 9.68L20.9 6L17.29 5.18L15.4 2L12 3.46L8.6 2L6.71 5.18L3.1 5.99L3.44 9.67L1 12.46L3.44 15.24L3.1 18.93L6.71 19.75L8.6 22.93L12 21.46L15.4 22.92L17.29 19.74L20.9 18.92L20.56 15.24L23 12.46ZM10 17.46L6 13.46L7.41 12.05L10 14.63L16.59 8.04L18 9.46L10 17.46Z" fill="#FFC501"/>
<path d="M11.9945 18.112C12.7145 18.112 13.2905 17.568 13.2905 16.88C13.2905 16.176 12.7145 15.632 11.9945 15.632C11.2905 15.632 10.7145 16.176 10.7145 16.88C10.7145 17.568 11.2905 18.112 11.9945 18.112ZM11.2265 14.56H12.7945L13.0985 6.56H10.9385L11.2265 14.56Z" fill="white"/>
</svg>
