<svg width="80" height="80" viewBox="0 0 80 80" fill="none" xmlns="http://www.w3.org/2000/svg">
<path d="M50 16.668H60L55 23.3346L50 16.668ZM16.6667 6.66797H63.3333C67.0333 6.66797 70 9.66797 70 13.3346V66.668C70 70.368 67.0333 73.3346 63.3333 73.3346H16.6667C13 73.3346 10 70.368 10 66.668V13.3346C10 9.66797 13 6.66797 16.6667 6.66797ZM16.6667 13.3346V26.668H63.3333V13.3346H16.6667ZM16.6667 66.668H63.3333V33.3346H16.6667V66.668ZM23.3333 40.0013H56.6667V46.668H23.3333V40.0013ZM23.3333 53.3346H56.6667V60.0013H23.3333V53.3346Z" fill="#6A7B86" fill-opacity="0.2"/>
<ellipse cx="63" cy="63" rx="15" ry="15" fill="#EB5757" stroke="white" stroke-width="3"/>
<path d="M71 57.91L68.09 55L63 60.09L57.91 55L55 57.91L60.09 63L55 68.09L57.91 71L63 65.91L68.09 71L71 68.09L65.91 63L71 57.91Z" fill="white"/>
</svg>
