<svg width="19" height="20" viewBox="0 0 19 20" fill="none" xmlns="http://www.w3.org/2000/svg">
<g clip-path="url(#clip0_5462_9936)">
<circle cx="9.40566" cy="10.0687" r="5.48672" fill="#FFC501"/>
<path d="M18.0277 10.4253L16.1151 8.24627L16.3816 5.36183L13.5521 4.7191L12.0706 2.22656L9.40567 3.37093L6.7407 2.22656L5.25928 4.7191L2.42971 5.35399L2.6962 8.23843L0.783691 10.4253L2.6962 12.6043L2.42971 15.4966L5.25928 16.1393L6.7407 18.6318L9.40567 17.4796L12.0706 18.624L13.5521 16.1315L16.3816 15.4887L16.1151 12.6043L18.0277 10.4253ZM7.83804 14.3444L4.70277 11.2091L5.80795 10.1039L7.83804 12.1262L13.0034 6.96081L14.1086 8.07383L7.83804 14.3444Z" fill="#FFC501"/>
<path d="M9.78696 14.8574C10.327 14.8574 10.759 14.4494 10.759 13.9334C10.759 13.4054 10.327 12.9974 9.78696 12.9974C9.25896 12.9974 8.82696 13.4054 8.82696 13.9334C8.82696 14.4494 9.25896 14.8574 9.78696 14.8574ZM9.21096 12.1934H10.387L10.615 6.19344H8.99496L9.21096 12.1934Z" fill="#09273C"/>
</g>
<defs>
<clipPath id="clip0_5462_9936">
<rect width="18.8116" height="18.8116" fill="white" transform="translate(0 0.660156)"/>
</clipPath>
</defs>
</svg>
