<svg width="28" height="28" viewBox="0 0 28 28" fill="none" xmlns="http://www.w3.org/2000/svg">
<path d="M19.8335 15.1654H15.1668V19.832H12.8335V15.1654H8.16683V12.832H12.8335V8.16537H15.1668V12.832H19.8335V15.1654ZM14.0002 2.33203C12.4681 2.33203 10.951 2.6338 9.53552 3.2201C8.12006 3.80641 6.83393 4.66577 5.75058 5.74912C3.56266 7.93704 2.3335 10.9045 2.3335 13.9987C2.3335 17.0929 3.56266 20.0604 5.75058 22.2483C6.83393 23.3316 8.12006 24.191 9.53552 24.7773C10.951 25.3636 12.4681 25.6654 14.0002 25.6654C17.0944 25.6654 20.0618 24.4362 22.2497 22.2483C24.4377 20.0604 25.6668 17.0929 25.6668 13.9987C25.6668 12.4666 25.3651 10.9495 24.7788 9.53406C24.1925 8.11859 23.3331 6.83247 22.2497 5.74912C21.1664 4.66577 19.8803 3.80641 18.4648 3.2201C17.0493 2.6338 15.5323 2.33203 14.0002 2.33203Z" fill="#F7941D"/>
</svg>
