<svg width="24" height="24" viewBox="0 0 24 24" fill="none" xmlns="http://www.w3.org/2000/svg">
<circle cx="12" cy="12" r="7" fill="#EB5757"/>
<path d="M23 11.9991L20.56 9.21906L20.9 5.53906L17.29 4.71906L15.4 1.53906L12 2.99906L8.6 1.53906L6.71 4.71906L3.1 5.52906L3.44 9.20906L1 11.9991L3.44 14.7791L3.1 18.4691L6.71 19.2891L8.6 22.4691L12 20.9991L15.4 22.4591L17.29 19.2791L20.9 18.4591L20.56 14.7791L23 11.9991ZM10 16.9991L6 12.9991L7.41 11.5891L10 14.1691L16.59 7.57906L18 8.99906L10 16.9991Z" fill="#EB5757"/>
<path d="M9.05439 13.767C8.97697 13.8443 8.91554 13.9362 8.87362 14.0373C8.83169 14.1384 8.8101 14.2468 8.81006 14.3563C8.81002 14.4657 8.83154 14.5741 8.87339 14.6753C8.91524 14.7764 8.97661 14.8683 9.05398 14.9457C9.13135 15.0231 9.22321 15.0846 9.32432 15.1265C9.42543 15.1684 9.53381 15.19 9.64327 15.1901C9.75272 15.1901 9.86112 15.1686 9.96226 15.1267C10.0634 15.0849 10.1553 15.0235 10.2327 14.9461L14.9469 10.232C15.0243 10.1545 15.0857 10.0626 15.1276 9.96147C15.1695 9.86031 15.1911 9.75189 15.1911 9.64239C15.1911 9.53289 15.1695 9.42447 15.1276 9.32331C15.0857 9.22215 15.0243 9.13023 14.9469 9.05281C14.8695 8.97538 14.7776 8.91396 14.6764 8.87206C14.5752 8.83016 14.4668 8.80859 14.3573 8.80859C14.2478 8.80859 14.1394 8.83016 14.0382 8.87206C13.9371 8.91396 13.8452 8.97538 13.7677 9.05281L9.05439 13.767Z" fill="white"/>
<path fill-rule="evenodd" clip-rule="evenodd" d="M7.28617 16.713C7.90524 17.3321 8.64019 17.8232 9.44905 18.1582C10.2579 18.4933 11.1248 18.6657 12.0003 18.6657C12.8758 18.6657 13.7428 18.4933 14.5516 18.1582C15.3605 17.8232 16.0954 17.3321 16.7145 16.713C17.3336 16.094 17.8246 15.359 18.1597 14.5502C18.4947 13.7413 18.6672 12.8744 18.6672 11.9989C18.6672 11.1234 18.4947 10.2564 18.1597 9.44758C17.8246 8.63872 17.3336 7.90378 16.7145 7.2847C15.4642 6.03443 13.7685 5.33203 12.0003 5.33203C10.2322 5.33203 8.53644 6.03443 7.28617 7.2847C6.03589 8.53498 5.3335 10.2307 5.3335 11.9989C5.3335 13.767 6.03589 15.4628 7.28617 16.713ZM15.5362 15.5347C14.5985 16.4725 13.3267 16.9993 12.0006 16.9994C10.6745 16.9995 9.40268 16.4728 8.46492 15.5351C7.52716 14.5975 7.00028 13.3257 7.00021 11.9996C7.00013 10.6735 7.52685 9.40163 8.4645 8.46387C9.40215 7.52611 10.6739 6.99924 12 6.99916C12.6567 6.99912 13.3069 7.12841 13.9135 7.37966C14.5202 7.6309 15.0714 7.99918 15.5358 8.46345C16.0001 8.92773 16.3684 9.47892 16.6197 10.0855C16.8711 10.6922 17.0004 11.3424 17.0005 11.999C17.0005 12.6556 16.8712 13.3058 16.62 13.9125C16.3687 14.5191 16.0004 15.0704 15.5362 15.5347Z" fill="white"/>
</svg>
