<svg width="12" height="12" viewBox="0 0 12 12" fill="none" xmlns="http://www.w3.org/2000/svg">
<rect width="12" height="12" rx="6" fill="#6A7B86" fill-opacity="0.2"/>
<path d="M7.26326 3.89354L5.85718 5.29962L4.4511 3.89354L4.37787 3.82031H4.27432H3.85718H3.60718V4.07031V4.48746V4.59101L3.6804 4.66423L5.08648 6.07031L3.6804 7.47639L3.60718 7.54961V7.65317V8.07031V8.32031H3.85718H4.27432H4.37787L4.4511 8.24709L5.85718 6.84101L7.26326 8.24709L7.33648 8.32031H7.44004H7.85718H8.10718V8.07031V7.65317V7.54961L8.03396 7.47639L6.62788 6.07031L8.03396 4.66423L8.10718 4.59101V4.48746V4.07031V3.82031H7.85718H7.44004H7.33648L7.26326 3.89354Z" fill="#6A7B86" stroke="#6A7B86" stroke-width="0.5"/>
</svg>
