<svg width="80" height="80" viewBox="0 0 80 80" fill="none" xmlns="http://www.w3.org/2000/svg">
<path d="M56.6667 35V23.3333C56.6667 22.4493 56.3155 21.6014 55.6904 20.9763C55.0652 20.3512 54.2174 20 53.3333 20H13.3333C12.4493 20 11.6014 20.3512 10.9763 20.9763C10.3512 21.6014 10 22.4493 10 23.3333V56.6667C10 57.5507 10.3512 58.3986 10.9763 59.0237C11.6014 59.6488 12.4493 60 13.3333 60H53.3333C54.2174 60 55.0652 59.6488 55.6904 59.0237C56.3155 58.3986 56.6667 57.5507 56.6667 56.6667V45L70 58.3333V21.6667L56.6667 35Z" fill="#6A7B86" fill-opacity="0.2"/>
<ellipse cx="63" cy="63" rx="15" ry="15" fill="#27AE60" stroke="white" stroke-width="3"/>
<path d="M57.2968 62.7046L60.9784 66.3862L69.7221 57.6425" stroke="white" stroke-width="3" stroke-linecap="round" stroke-linejoin="round"/>
</svg>
