<svg width="41" height="38" viewBox="0 0 41 38" fill="none" xmlns="http://www.w3.org/2000/svg">
<path d="M29.2915 12.668C29.2915 10.1484 28.317 7.73205 26.5822 5.95045C24.8475 4.16886 22.4948 3.16797 20.0415 3.16797C17.5883 3.16797 15.2355 4.16886 13.5008 5.95045C11.7661 7.73205 10.7915 10.1484 10.7915 12.668C10.7915 23.7513 6.1665 26.918 6.1665 26.918H33.9165C33.9165 26.918 29.2915 23.7513 29.2915 12.668Z" stroke="#09273C" stroke-width="4" stroke-linecap="round" stroke-linejoin="round"/>
<path d="M22.7087 33.918C22.4376 34.3978 22.0486 34.7962 21.5805 35.0731C21.1125 35.3499 20.5818 35.4957 20.0416 35.4957C19.5014 35.4957 18.9707 35.3499 18.5027 35.0731C18.0346 34.7962 17.6456 34.3978 17.3745 33.918" stroke="#09273C" stroke-width="4" stroke-linecap="round" stroke-linejoin="round"/>
<path d="M3.0835 12.668C3.0835 9.18463 4.16266 5.85963 6.16683 3.16797" stroke="#F7941D" stroke-width="4" stroke-linecap="round" stroke-linejoin="round"/>
<path d="M36.9998 12.668C36.9998 9.2421 35.9179 5.90866 33.9165 3.16797" stroke="#F7941D" stroke-width="4" stroke-linecap="round" stroke-linejoin="round"/>
</svg>
