<svg width="11" height="16" viewBox="0 0 11 16" fill="none" xmlns="http://www.w3.org/2000/svg">
<path d="M5.4166 5.7613C4.6423 5.7613 4.25514 6.07655 4.25514 6.70706C4.25514 6.8398 4.2828 6.97807 4.33811 7.12187C4.39341 7.25461 4.46531 7.32098 4.55381 7.32098C4.81928 7.30991 5.10688 7.2712 5.4166 7.20483C5.72633 7.13846 6.00287 7.07209 6.24622 7.00572C6.50063 6.92829 6.66103 6.87851 6.7274 6.85639C7.22516 6.71259 7.51276 6.64069 7.59019 6.64069C7.87779 6.64069 8.17092 6.78449 8.46959 7.07209C8.76825 7.34863 9.01713 7.71366 9.21624 8.16718C9.41535 8.60964 9.5149 9.06317 9.5149 9.52775C9.5149 10.1029 9.35451 10.6339 9.03372 11.1206C8.71294 11.6073 8.29813 11.9945 7.7893 12.2821C7.28047 12.5807 6.76058 12.7522 6.22963 12.7964L7.68975 14.9534L6.11348 15.7664L5.26727 12.7467C4.73632 12.6692 4.26621 12.5254 3.85693 12.3153C3.45871 12.1051 3.14899 11.8562 2.92776 11.5686C2.70653 11.2699 2.59592 10.9657 2.59592 10.656C2.60698 10.291 2.73972 10.0145 2.99413 9.82641C3.25961 9.6273 3.54168 9.52775 3.84034 9.52775C3.86246 9.52775 3.97308 9.53881 4.17218 9.56093L5.0018 10.9215C5.49957 10.9215 6.03605 10.8385 6.61125 10.6726C7.18645 10.4956 7.66762 10.2744 8.05478 10.0089C8.45299 9.74345 8.6521 9.4835 8.6521 9.22909C8.6521 9.06317 8.61892 8.91383 8.55255 8.7811C8.49724 8.64836 8.43087 8.5488 8.35344 8.48244C8.16539 8.48244 7.73399 8.58752 7.05924 8.79769C6.30706 9.01892 5.82588 9.12953 5.61571 9.12953C5.3613 9.12953 5.02392 8.98573 4.60358 8.69813C4.18324 8.39947 3.81268 8.02891 3.4919 7.58645C3.18218 7.13293 3.02732 6.68494 3.02732 6.24248C3.02732 4.67174 3.64676 3.88637 4.88565 3.88637H6.54488V2.77469H1.50083L0.73758 1.26479V0.899761H9.69741L10.5104 2.42625V2.77469H8.76825V5.7613H5.4166Z" fill="#3B9ADA"/>
<path d="M4.33811 7.12187L4.15137 7.19369L4.15349 7.19879L4.33811 7.12187ZM4.55381 7.32098V7.52114L4.56213 7.5208L4.55381 7.32098ZM5.4166 7.20483L5.45851 7.40039L5.4166 7.20483ZM6.24622 7.00572L6.29886 7.19875L6.30445 7.19705L6.24622 7.00572ZM6.7274 6.85639L6.67184 6.66409L6.66415 6.66666L6.7274 6.85639ZM8.46959 7.07209L8.33083 7.21618L8.33371 7.21884L8.46959 7.07209ZM9.21624 8.16718L9.0331 8.24758L9.03386 8.24925L9.21624 8.16718ZM9.03372 11.1206L9.20071 11.2307L9.03372 11.1206ZM7.7893 12.2821L7.69088 12.1079L7.68806 12.1096L7.7893 12.2821ZM6.22963 12.7964L6.21302 12.5971L5.87242 12.6255L6.06401 12.9085L6.22963 12.7964ZM7.68975 14.9534L7.78143 15.1312L7.98166 15.0279L7.85537 14.8413L7.68975 14.9534ZM6.11348 15.7664L5.9209 15.8204L5.9871 16.0567L6.20516 15.9442L6.11348 15.7664ZM5.26727 12.7467L5.45985 12.6927L5.42477 12.5675L5.29613 12.5487L5.26727 12.7467ZM3.85693 12.3153L3.76357 12.4921L3.76557 12.4932L3.85693 12.3153ZM2.92776 11.5686L2.76703 11.6877L2.76924 11.6905L2.92776 11.5686ZM2.59592 10.656L2.39592 10.65V10.656H2.59592ZM2.99413 9.82641L3.11301 9.98725L3.11413 9.98641L2.99413 9.82641ZM4.17218 9.56093L4.34294 9.45681L4.29183 9.373L4.19427 9.36216L4.17218 9.56093ZM5.0018 10.9215L4.83104 11.0256L4.8895 11.1215H5.0018V10.9215ZM6.61125 10.6726L6.66669 10.8648L6.67007 10.8638L6.61125 10.6726ZM8.05478 10.0089L7.94383 9.8425L7.94167 9.84398L8.05478 10.0089ZM8.55255 8.7811L8.3675 8.8582L8.37366 8.87054L8.55255 8.7811ZM8.35344 8.48244L8.4836 8.33059L8.42742 8.28244H8.35344V8.48244ZM7.05924 8.79769L7.11568 8.98958L7.11872 8.98864L7.05924 8.79769ZM4.60358 8.69814L4.48773 8.86119L4.49065 8.86319L4.60358 8.69814ZM3.4919 7.58645L3.32668 7.69929L3.32998 7.70384L3.4919 7.58645ZM6.54488 3.88637V4.08637H6.74488V3.88637H6.54488ZM6.54488 2.77469H6.74488V2.57469H6.54488V2.77469ZM1.50083 2.77469L1.32234 2.86491L1.37783 2.97468H1.50083V2.77469ZM0.73758 1.26479H0.537584V1.31247L0.559092 1.35502L0.73758 1.26479ZM0.73758 0.899761V0.699764H0.537584V0.899761H0.73758ZM9.69741 0.899761L9.87393 0.805744L9.81749 0.699764H9.69741V0.899761ZM10.5104 2.42625H10.7104V2.37631L10.687 2.33223L10.5104 2.42625ZM10.5104 2.77469V2.97468H10.7104V2.77469H10.5104ZM8.76825 2.77469V2.57469H8.56825V2.77469H8.76825ZM8.76825 5.7613V5.9613H8.96824V5.7613H8.76825ZM5.4166 5.5613C5.00745 5.5613 4.66347 5.64377 4.41923 5.84266C4.16712 6.04794 4.05515 6.34888 4.05515 6.70706H4.45514C4.45514 6.43474 4.53675 6.26279 4.67179 6.15283C4.8147 6.03646 5.05145 5.9613 5.4166 5.9613V5.5613ZM4.05515 6.70706C4.05515 6.86795 4.08872 7.03058 4.15144 7.19366L4.52477 7.05007C4.47688 6.92556 4.45514 6.81165 4.45514 6.70706H4.05515ZM4.15349 7.19879C4.21825 7.35419 4.34028 7.52097 4.55381 7.52097V7.12098C4.5574 7.12098 4.56234 7.12179 4.56702 7.12373C4.57137 7.12553 4.57199 7.12685 4.56917 7.12424C4.56193 7.11756 4.54406 7.09618 4.52272 7.04495L4.15349 7.19879ZM4.56213 7.5208C4.8408 7.50919 5.13977 7.46869 5.45851 7.40039L5.3747 7.00927C5.074 7.07371 4.79776 7.11064 4.54548 7.12115L4.56213 7.5208ZM5.45851 7.40039C5.77097 7.33343 6.05118 7.26621 6.29884 7.19867L6.1936 6.81277C5.95455 6.87797 5.68169 6.94349 5.3747 7.00927L5.45851 7.40039ZM6.30445 7.19705C6.55801 7.11988 6.72123 7.06926 6.79064 7.04612L6.66415 6.66666C6.60082 6.68777 6.44325 6.7367 6.18799 6.81439L6.30445 7.19705ZM6.7829 7.04853C7.0309 6.97689 7.22458 6.92373 7.36493 6.88864C7.43523 6.87107 7.49038 6.85847 7.53136 6.8504C7.577 6.84141 7.59236 6.84069 7.59019 6.84069V6.4407C7.54931 6.4407 7.49969 6.44896 7.45406 6.45795C7.40379 6.46785 7.34141 6.48222 7.26792 6.50059C7.12067 6.5374 6.92166 6.5921 6.67189 6.66425L6.7829 7.04853ZM7.59019 6.84069C7.80703 6.84069 8.05304 6.94862 8.33086 7.21615L8.60831 6.92803C8.28881 6.62036 7.94856 6.4407 7.59019 6.4407V6.84069ZM8.33371 7.21884C8.60837 7.47316 8.8427 7.81386 9.03311 8.24758L9.39936 8.08679C9.19156 7.61346 8.92813 7.2241 8.60546 6.92534L8.33371 7.21884ZM9.03386 8.24925C9.22188 8.66708 9.3149 9.09272 9.3149 9.52775H9.7149C9.7149 9.03361 9.60881 8.5522 9.39862 8.08511L9.03386 8.24925ZM9.3149 9.52775C9.3149 10.0633 9.16629 10.556 8.86673 11.0105L9.20071 11.2307C9.54272 10.7118 9.7149 10.1426 9.7149 9.52775H9.3149ZM8.86673 11.0105C8.56346 11.4707 8.17218 11.8359 7.69089 12.108L7.88771 12.4562C8.42408 12.153 8.86242 11.7439 9.20071 11.2307L8.86673 11.0105ZM7.68806 12.1096C7.20227 12.3947 6.71103 12.5556 6.21302 12.5971L6.24624 12.9957C6.81013 12.9487 7.35867 12.7667 7.89054 12.4545L7.68806 12.1096ZM6.06401 12.9085L7.52413 15.0655L7.85537 14.8413L6.39525 12.6843L6.06401 12.9085ZM7.59807 14.7757L6.0218 15.5887L6.20516 15.9442L7.78143 15.1312L7.59807 14.7757ZM6.30606 15.7125L5.45985 12.6927L5.0747 12.8006L5.9209 15.8204L6.30606 15.7125ZM5.29613 12.5487C4.78343 12.474 4.33502 12.3359 3.94829 12.1373L3.76557 12.4932C4.19739 12.7149 4.68921 12.8645 5.23841 12.9446L5.29613 12.5487ZM3.95028 12.1384C3.57152 11.9385 3.2863 11.7067 3.08628 11.4467L2.76924 11.6905C3.01169 12.0057 3.34591 12.2717 3.76358 12.4921L3.95028 12.1384ZM3.08847 11.4496C2.88751 11.1783 2.79591 10.9148 2.79591 10.656H2.39592C2.39592 11.0167 2.52555 11.3616 2.76705 11.6876L3.08847 11.4496ZM2.79582 10.6621C2.80535 10.3477 2.91589 10.1329 3.11301 9.98724L2.87525 9.66558C2.56354 9.89597 2.40861 10.2343 2.39601 10.65L2.79582 10.6621ZM3.11413 9.98641C3.34903 9.81023 3.58975 9.72775 3.84034 9.72775V9.32775C3.4936 9.32775 3.17018 9.44438 2.87413 9.66641L3.11413 9.98641ZM3.84034 9.72775C3.83883 9.72775 3.85949 9.729 3.91999 9.73505C3.97421 9.74047 4.0508 9.74867 4.1501 9.75971L4.19427 9.36216C4.09446 9.35107 4.01619 9.34268 3.95979 9.33704C3.90967 9.33203 3.86397 9.32775 3.84034 9.32775V9.72775ZM4.00143 9.66505L4.83104 11.0256L5.17255 10.8174L4.34294 9.45681L4.00143 9.66505ZM5.0018 11.1215C5.52166 11.1215 6.07698 11.0349 6.66668 10.8648L6.55582 10.4805C5.99512 10.6422 5.47747 10.7215 5.0018 10.7215V11.1215ZM6.67007 10.8638C7.25942 10.6824 7.76013 10.4535 8.16788 10.1739L7.94167 9.84398C7.57512 10.0953 7.11347 10.3088 6.55243 10.4815L6.67007 10.8638ZM8.16572 10.1753C8.57275 9.90398 8.8521 9.59181 8.8521 9.22909H8.4521C8.4521 9.3752 8.33324 9.58292 7.94384 9.84252L8.16572 10.1753ZM8.8521 9.22909C8.8521 9.03582 8.81325 8.8553 8.73143 8.69166L8.37366 8.87054C8.42458 8.97237 8.4521 9.09051 8.4521 9.22909H8.8521ZM8.73716 8.70417C8.67444 8.55365 8.5925 8.42393 8.4836 8.33059L8.22328 8.63428C8.26924 8.67368 8.32004 8.74306 8.36793 8.85802L8.73716 8.70417ZM8.35344 8.28244C8.23307 8.28244 8.05748 8.31433 7.84152 8.36693C7.62009 8.42087 7.33911 8.50104 6.99977 8.60674L7.11872 8.98864C7.45412 8.88417 7.72622 8.80671 7.93619 8.75556C8.15163 8.70308 8.28577 8.68243 8.35344 8.68243V8.28244ZM7.00281 8.60582C6.62861 8.71588 6.32452 8.79761 6.08941 8.85166C5.84917 8.90689 5.69593 8.92954 5.61571 8.92954V9.32953C5.74566 9.32953 5.93809 9.29687 6.17903 9.24149C6.42509 9.18492 6.73768 9.10073 7.11567 8.98956L7.00281 8.60582ZM5.61571 8.92954C5.4255 8.92954 5.13119 8.8168 4.71652 8.53308L4.49065 8.86319C4.91665 9.15467 5.29709 9.32953 5.61571 9.32953V8.92954ZM4.71942 8.5351C4.31786 8.24978 3.9626 7.89496 3.65382 7.46906L3.32998 7.70384C3.66277 8.16286 4.04863 8.54916 4.48774 8.86117L4.71942 8.5351ZM3.65706 7.47366C3.36452 7.0453 3.22731 6.63592 3.22731 6.24248H2.82732C2.82732 6.73396 2.99983 7.22055 3.32674 7.69924L3.65706 7.47366ZM3.22731 6.24248C3.22731 5.47799 3.37897 4.94153 3.64893 4.59925C3.91176 4.26602 4.31134 4.08637 4.88565 4.08637V3.68638C4.22107 3.68638 3.69148 3.89941 3.33487 4.35154C2.98539 4.79464 2.82732 5.43623 2.82732 6.24248H3.22731ZM4.88565 4.08637H6.54488V3.68638H4.88565V4.08637ZM6.74488 3.88637V2.77469H6.34488V3.88637H6.74488ZM6.54488 2.57469H1.50083V2.97468H6.54488V2.57469ZM1.67931 2.68446L0.916068 1.17457L0.559092 1.35502L1.32234 2.86491L1.67931 2.68446ZM0.937576 1.26479V0.899761H0.537584V1.26479H0.937576ZM0.73758 1.09976H9.69741V0.699764H0.73758V1.09976ZM9.52089 0.993777L10.3339 2.52027L10.687 2.33223L9.87393 0.805744L9.52089 0.993777ZM10.3104 2.42625V2.77469H10.7104V2.42625H10.3104ZM10.5104 2.57469H8.76825V2.97468H10.5104V2.57469ZM8.56825 2.77469V5.7613H8.96824V2.77469H8.56825ZM8.76825 5.5613H5.4166V5.9613H8.76825V5.5613Z" fill="#3B9ADA"/>
</svg>
