<svg width="15" height="40" viewBox="0 0 15 40" fill="none" xmlns="http://www.w3.org/2000/svg">
<path d="M7.424 17.976C6.304 17.976 5.744 18.432 5.744 19.344C5.744 19.536 5.784 19.736 5.864 19.944C5.944 20.136 6.048 20.232 6.176 20.232C6.56 20.216 6.976 20.16 7.424 20.064C7.872 19.968 8.272 19.872 8.624 19.776C8.992 19.664 9.224 19.592 9.32 19.56C10.04 19.352 10.456 19.248 10.568 19.248C10.984 19.248 11.408 19.456 11.84 19.872C12.272 20.272 12.632 20.8 12.92 21.456C13.208 22.096 13.352 22.752 13.352 23.424C13.352 24.256 13.12 25.024 12.656 25.728C12.192 26.432 11.592 26.992 10.856 27.408C10.12 27.84 9.368 28.088 8.6 28.152L10.712 31.272L8.432 32.448L7.208 28.08C6.44 27.968 5.76 27.76 5.168 27.456C4.592 27.152 4.144 26.792 3.824 26.376C3.504 25.944 3.344 25.504 3.344 25.056C3.36 24.528 3.552 24.128 3.92 23.856C4.304 23.568 4.712 23.424 5.144 23.424C5.176 23.424 5.336 23.44 5.624 23.472L6.824 25.44C7.544 25.44 8.32 25.32 9.152 25.08C9.984 24.824 10.68 24.504 11.24 24.12C11.816 23.736 12.104 23.36 12.104 22.992C12.104 22.752 12.056 22.536 11.96 22.344C11.88 22.152 11.784 22.008 11.672 21.912C11.4 21.912 10.776 22.064 9.8 22.368C8.712 22.688 8.016 22.848 7.712 22.848C7.344 22.848 6.856 22.64 6.248 22.224C5.64 21.792 5.104 21.256 4.64 20.616C4.192 19.96 3.968 19.312 3.968 18.672C3.968 16.4 4.864 15.264 6.656 15.264H9.056V13.656H1.76L0.656 11.472V10.944H13.616L14.792 13.152V13.656H12.272V17.976H7.424Z" fill="#27AE60"/>
<rect y="10" width="15" height="4" fill="white"/>
</svg>
