<svg width="32" height="34" viewBox="0 0 32 34" fill="none" xmlns="http://www.w3.org/2000/svg">
<path d="M12.5 11.875C12.5 12.2065 12.3683 12.5246 12.1339 12.7589C11.8996 12.9933 11.5815 13.125 11.25 13.125C10.9049 13.125 10.625 13.4049 10.625 13.75V18.75C10.625 18.9157 10.6908 19.0748 10.808 19.192C10.9252 19.3092 11.0843 19.375 11.25 19.375C11.5815 19.375 11.8996 19.5067 12.1339 19.7411C12.3683 19.9754 12.5 20.2935 12.5 20.625C12.5 20.7907 12.5658 20.9498 12.683 21.067C12.8002 21.1842 12.9593 21.25 13.125 21.25H26.875C27.0407 21.25 27.1998 21.1842 27.317 21.067C27.4342 20.9498 27.5 20.7907 27.5 20.625C27.5 20.2935 27.6317 19.9754 27.8661 19.7411C28.1004 19.5067 28.4185 19.375 28.75 19.375C28.9157 19.375 29.0748 19.3092 29.192 19.192C29.3092 19.0748 29.375 18.9157 29.375 18.75V13.75C29.375 13.5843 29.3092 13.4252 29.192 13.308C29.0748 13.1909 28.9157 13.125 28.75 13.125C28.4185 13.125 28.1004 12.9933 27.8661 12.7589C27.6317 12.5246 27.5 12.2065 27.5 11.875C27.5 11.7093 27.4342 11.5502 27.317 11.433C27.1998 11.3159 27.0407 11.25 26.875 11.25H13.125C12.7799 11.25 12.5 11.5299 12.5 11.875ZM26.3286 12.5C26.4413 12.9322 26.667 13.3264 26.9829 13.642C27.2984 13.9579 27.6927 14.1836 28.1249 14.2963V18.2037C27.6927 18.3164 27.2984 18.5421 26.9829 18.858C26.667 19.1735 26.4413 19.5678 26.3286 20H13.6714C13.5587 19.5678 13.333 19.1735 13.0171 18.858C12.7016 18.5421 12.3073 18.3164 11.8751 18.2037V14.2963C12.3073 14.1836 12.7016 13.9579 13.0171 13.642C13.333 13.3264 13.5587 12.9322 13.6714 12.5H26.3286Z" fill="#F7941D" fill-opacity="0.8"/>
<path d="M19.375 0H3.125C2.29657 0.00111607 1.50221 0.330636 0.916286 0.916286C0.330629 1.50222 0.00114286 2.29657 0 3.125V30.625C0.00111607 31.4534 0.330636 32.2478 0.916286 32.8337C1.50222 33.4194 2.29657 33.7489 3.125 33.75H19.375C20.2034 33.7489 20.9978 33.4194 21.5837 32.8337C22.1694 32.2478 22.4989 31.4534 22.5 30.625V23.125H29.375C29.8722 23.125 30.3494 22.9275 30.7009 22.5759C31.0524 22.2243 31.25 21.7472 31.25 21.25V11.25C31.25 10.7528 31.0524 10.2757 30.7009 9.92418C30.3493 9.57268 29.8721 9.37507 29.375 9.37507H22.5V3.12507C22.4989 2.29664 22.1694 1.50229 21.5837 0.916357C20.9978 0.3307 20.2034 0.00121425 19.375 7.13893e-05V0ZM17.1139 1.25L16.4411 2.59571C16.3293 2.90124 16.1359 3.17049 15.8817 3.37393C15.6275 3.57736 15.3228 3.70764 15 3.75004H7.5C7.17718 3.70763 6.87249 3.57733 6.61829 3.37393C6.36409 3.17053 6.17074 2.90127 6.05886 2.59571L5.38614 1.25H17.1139ZM19.375 32.5H3.125C2.62779 32.5 2.15064 32.3025 1.79914 31.9509C1.44764 31.5993 1.25004 31.1222 1.25004 30.625V28.75H21.25V30.625C21.25 31.1222 21.0525 31.5994 20.7009 31.9509C20.3494 32.3024 19.8722 32.5 19.3751 32.5H19.375ZM21.25 27.5H1.25V3.125C1.25 2.62779 1.44754 2.15064 1.79911 1.79914C2.15067 1.44764 2.62782 1.25004 3.12496 1.25004H3.98882L4.94082 3.15432H4.94054C5.15176 3.67079 5.5036 4.11746 5.9559 4.44368C6.40846 4.76985 6.94333 4.96265 7.49997 5.00004H15C15.5572 4.96321 16.0926 4.77069 16.5458 4.44452C16.9989 4.11807 17.351 3.67109 17.5625 3.15438L18.5111 1.25009H19.375C19.8722 1.25009 20.3493 1.44764 20.7008 1.7992C21.0523 2.15076 21.2499 2.62791 21.2499 3.12506V9.37506H10.6249C10.1277 9.37506 9.65058 9.5726 9.29908 9.92416C8.94758 10.2757 8.74997 10.7529 8.74997 11.25V21.25C8.74997 21.7472 8.94751 22.2244 9.29908 22.5759C9.65064 22.9274 10.1278 23.125 10.6249 23.125H21.2499L21.25 27.5ZM30 11.25V21.25C30 21.4157 29.9341 21.5748 29.817 21.692C29.6998 21.8092 29.5407 21.875 29.375 21.875H10.625C10.2799 21.875 10 21.5951 10 21.25V11.25C10 10.9049 10.2799 10.625 10.625 10.625H29.375C29.5407 10.625 29.6998 10.6908 29.817 10.808C29.9341 10.9252 30 11.0843 30 11.25Z" fill="#F7941D" fill-opacity="0.8"/>
<path d="M12.5 30H10C9.65486 30 9.375 30.2799 9.375 30.625C9.375 30.9702 9.65486 31.25 10 31.25H12.5C12.8451 31.25 13.125 30.9702 13.125 30.625C13.125 30.2799 12.8451 30 12.5 30Z" fill="#F7941D" fill-opacity="0.8"/>
<path d="M20 18.75C20.663 18.75 21.2989 18.4866 21.7679 18.0179C22.2366 17.5488 22.5 16.9129 22.5 16.25C22.5 15.5871 22.2366 14.9511 21.7679 14.4821C21.2989 14.0134 20.663 13.75 20 13.75C19.3371 13.75 18.7012 14.0134 18.2321 14.4821C17.7634 14.9512 17.5 15.5871 17.5 16.25C17.5 16.9129 17.7634 17.5489 18.2321 18.0179C18.7012 18.4866 19.3371 18.75 20 18.75ZM20 15C20.3315 15 20.6496 15.1317 20.884 15.3661C21.1183 15.6004 21.25 15.9185 21.25 16.25C21.25 16.5815 21.1183 16.8996 20.884 17.1339C20.6496 17.3683 20.3315 17.5 20 17.5C19.6685 17.5 19.3505 17.3683 19.1161 17.1339C18.8817 16.8996 18.75 16.5815 18.75 16.25C18.75 15.9185 18.8817 15.6004 19.1161 15.3661C19.3505 15.1317 19.6685 15 20 15Z" fill="#F7941D" fill-opacity="0.8"/>
<path d="M15.625 16.875H16.25C16.5952 16.875 16.875 16.5951 16.875 16.25C16.875 15.9049 16.5952 15.625 16.25 15.625H15.625C15.2799 15.625 15 15.9049 15 16.25C15 16.5951 15.2799 16.875 15.625 16.875Z" fill="#F7941D" fill-opacity="0.8"/>
<path d="M23.75 16.875H24.375C24.7201 16.875 25 16.5951 25 16.25C25 15.9049 24.7201 15.625 24.375 15.625H23.75C23.4049 15.625 23.125 15.9049 23.125 16.25C23.125 16.5951 23.4049 16.875 23.75 16.875Z" fill="#F7941D" fill-opacity="0.8"/>
<path d="M10.0001 8.74622H19.3751C19.6279 8.74622 19.8556 8.59388 19.9524 8.36034C20.0492 8.12681 19.9957 7.85811 19.8171 7.67926L17.9421 5.80426C17.6968 5.56737 17.307 5.571 17.0659 5.81207C16.8248 6.05314 16.8212 6.44293 17.0581 6.68821L17.8664 7.49621H10C9.65486 7.49621 9.375 7.77607 9.375 8.12121C9.375 8.46635 9.65486 8.74621 10 8.74621L10.0001 8.74622Z" fill="#F7941D" fill-opacity="0.8"/>
<path d="M5.04713 24.1356C4.95031 24.3691 5.00389 24.6381 5.18273 24.817L7.05774 26.692C7.30299 26.9289 7.69278 26.9252 7.93388 26.6842C8.17498 26.4431 8.17858 26.0533 7.94169 25.808L7.13341 25H14.9998C15.345 25 15.6248 24.7201 15.6248 24.375C15.6248 24.0299 15.345 23.75 14.9998 23.75H5.62483C5.37204 23.75 5.14408 23.9021 5.04727 24.1356L5.04713 24.1356Z" fill="#F7941D" fill-opacity="0.8"/>
</svg>
