<svg width="15" height="23" viewBox="0 0 15 23" fill="none" xmlns="http://www.w3.org/2000/svg">
<path d="M7.424 7.976C6.304 7.976 5.744 8.432 5.744 9.344C5.744 9.536 5.784 9.736 5.864 9.944C5.944 10.136 6.048 10.232 6.176 10.232C6.56 10.216 6.976 10.16 7.424 10.064C7.872 9.968 8.272 9.872 8.624 9.776C8.992 9.664 9.224 9.592 9.32 9.56C10.04 9.352 10.456 9.248 10.568 9.248C10.984 9.248 11.408 9.456 11.84 9.872C12.272 10.272 12.632 10.8 12.92 11.456C13.208 12.096 13.352 12.752 13.352 13.424C13.352 14.256 13.12 15.024 12.656 15.728C12.192 16.432 11.592 16.992 10.856 17.408C10.12 17.84 9.368 18.088 8.6 18.152L10.712 21.272L8.432 22.448L7.208 18.08C6.44 17.968 5.76 17.76 5.168 17.456C4.592 17.152 4.144 16.792 3.824 16.376C3.504 15.944 3.344 15.504 3.344 15.056C3.36 14.528 3.552 14.128 3.92 13.856C4.304 13.568 4.712 13.424 5.144 13.424C5.176 13.424 5.336 13.44 5.624 13.472L6.824 15.44C7.544 15.44 8.32 15.32 9.152 15.08C9.984 14.824 10.68 14.504 11.24 14.12C11.816 13.736 12.104 13.36 12.104 12.992C12.104 12.752 12.056 12.536 11.96 12.344C11.88 12.152 11.784 12.008 11.672 11.912C11.4 11.912 10.776 12.064 9.8 12.368C8.712 12.688 8.016 12.848 7.712 12.848C7.344 12.848 6.856 12.64 6.248 12.224C5.64 11.792 5.104 11.256 4.64 10.616C4.192 9.96 3.968 9.312 3.968 8.672C3.968 6.4 4.864 5.264 6.656 5.264H9.056V3.656H1.76L0.656 1.472V0.943999H13.616L14.792 3.152V3.656H12.272V7.976H7.424Z" fill="#09273C"/>
</svg>
